<?xml version="1.0" encoding="UTF-8" standalone="no"?>
<!DOCTYPE svg PUBLIC "-//W3C//DTD SVG 1.1//EN" "http://www.w3.org/Graphics/SVG/1.1/DTD/svg11.dtd">
<svg xmlns="http://www.w3.org/2000/svg" version="1.1" viewBox="0.00 0.00 1024.00 1024.00">
<g stroke-width="2.00" fill="none" stroke-linecap="butt">
<path stroke="#88d2db" vector-effect="non-scaling-stroke" d="
  M 534.46 189.22
  Q 530.29 189.82 526.55 191.58
  C 512.68 198.16 501.32 211.32 494.79 224.98
  Q 490.01 234.99 485.28 245.24
  Q 479.64 257.46 470.30 271.26
  C 466.53 276.83 461.97 282.42 457.79 288.05"
/>
<path stroke="#928ea3" vector-effect="non-scaling-stroke" d="
  M 457.79 288.05
  Q 456.87 288.58 456.53 289.56
  A 0.53 0.53 0.0 0 0 457.10 290.26
  Q 465.46 289.17 473.88 288.06
  Q 490.59 285.84 505.14 280.40
  C 528.38 271.69 547.33 253.72 555.00 229.59
  C 560.29 212.96 558.78 186.19 534.46 189.22"
/>
<path stroke="#1c648e" vector-effect="non-scaling-stroke" d="
  M 457.79 288.05
  Q 460.65 288.25 463.53 286.58
  Q 473.39 280.90 483.36 274.21
  C 497.69 264.59 510.38 252.67 520.16 238.39
  Q 527.66 227.46 531.64 215.02
  Q 535.63 202.58 534.46 189.22"
/>
<path stroke="#f190c4" vector-effect="non-scaling-stroke" d="
  M 309.23 397.25
  Q 312.37 404.26 312.22 412.00
  Q 312.00 423.35 311.24 437.26
  Q 310.01 459.85 310.80 481.97
  C 311.16 492.08 321.23 498.38 330.40 493.22
  C 337.26 489.36 338.52 482.25 337.30 475.00
  Q 335.74 465.75 333.74 457.02
  C 332.05 449.68 330.92 442.30 329.78 434.95
  Q 327.97 423.41 328.56 412.58
  C 330.10 383.99 339.84 356.68 357.52 334.48
  Q 372.61 315.53 391.97 300.50
  Q 405.17 290.26 417.27 281.00
  C 434.49 267.83 449.98 252.48 460.04 233.06"
/>
<path stroke="#fea1cd" vector-effect="non-scaling-stroke" d="
  M 460.04 233.06
  Q 467.55 218.98 468.37 202.80
  A 0.95 0.95 0.0 0 0 467.30 201.81
  C 461.03 202.61 454.87 203.57 448.64 205.14
  C 402.21 216.89 358.44 237.92 319.58 266.08
  Q 259.90 309.33 224.95 374.22
  Q 215.18 392.36 208.29 412.17
  C 205.55 420.04 201.28 430.63 209.42 436.94
  Q 212.61 439.41 216.47 438.89
  C 224.36 437.82 226.72 431.83 227.71 424.93
  Q 229.24 414.36 231.90 405.56
  C 235.16 394.74 241.65 386.12 251.19 380.23
  Q 261.51 373.85 275.26 374.45
  C 289.89 375.09 302.53 384.16 309.23 397.25"
/>
<path stroke="#f135a2" vector-effect="non-scaling-stroke" d="
  M 460.04 233.06
  Q 458.74 233.48 460.03 232.11
  Q 460.40 231.73 460.39 231.20
  Q 460.38 230.66 460.86 230.38
  Q 461.34 230.09 461.35 229.53
  Q 461.37 228.81 461.98 228.30
  Q 462.19 228.12 462.07 227.86
  Q 461.98 227.68 461.85 227.77
  Q 461.51 228.03 461.59 227.61
  Q 461.61 227.48 461.63 227.34
  Q 461.69 226.97 461.33 226.86
  Q 459.31 226.24 458.39 228.00
  Q 458.18 228.39 457.74 228.43
  Q 457.04 228.50 456.60 229.10
  Q 456.28 229.51 455.80 229.32
  Q 454.33 228.72 453.07 229.52
  C 451.95 230.25 450.58 230.26 449.33 230.31
  Q 448.84 230.33 448.53 230.71
  Q 448.41 230.87 448.27 231.01
  Q 447.99 231.30 448.10 230.91
  Q 448.15 230.77 448.05 230.66
  Q 447.88 230.47 447.65 230.55
  Q 445.77 231.22 444.02 231.01
  Q 443.61 230.96 443.23 231.09
  L 441.57 231.68
  Q 440.91 231.91 441.30 231.33
  Q 441.91 230.44 442.64 229.96
  Q 443.42 229.45 442.50 229.51
  L 436.66 229.86
  A 0.53 0.51 -22.1 0 1 436.26 229.70
  Q 436.01 229.45 435.54 229.52
  Q 434.41 229.69 433.31 229.85
  Q 432.92 229.90 433.31 229.92
  Q 433.51 229.94 433.52 230.14
  A 0.16 0.16 0.0 0 1 433.32 230.30
  C 432.41 230.10 431.52 230.17 430.74 230.77
  Q 422.42 237.22 415.66 241.64
  Q 398.14 253.11 384.87 262.68
  Q 370.24 273.23 354.82 289.76
  C 346.87 298.29 339.83 308.51 334.66 318.78
  C 327.57 332.87 324.20 348.80 326.25 364.20
  Q 326.89 369.02 327.39 373.81
  Q 327.41 374.01 327.21 373.98
  Q 327.05 373.96 327.00 373.82
  Q 326.77 373.23 326.75 373.86
  Q 326.74 374.23 326.37 374.22
  Q 325.96 374.21 325.67 374.50
  Q 324.41 375.72 323.74 377.17
  A 1.90 1.84 -6.2 0 1 323.16 377.87
  Q 322.27 378.53 321.62 379.42
  Q 318.64 383.53 315.80 387.48
  Q 314.88 388.77 313.67 389.89
  Q 312.47 391.00 311.25 392.15
  Q 310.86 392.52 311.04 393.02
  Q 311.13 393.26 311.03 393.49
  Q 310.91 393.76 310.63 393.68
  Q 310.48 393.63 310.37 393.50
  A 0.20 0.19 33.1 0 0 310.02 393.57
  L 309.23 397.25"
/>
<path stroke="#fea1cd" vector-effect="non-scaling-stroke" d="
  M 675.62 220.85
  Q 650.80 207.79 623.73 203.42
  A 0.49 0.49 0.0 0 0 623.24 204.18
  Q 638.36 226.82 644.91 251.37
  A 0.45 0.45 0.0 0 0 645.72 251.50
  Q 646.77 249.86 648.23 248.44
  Q 663.56 233.56 681.21 224.67
  A 0.37 0.36 47.4 0 0 681.23 224.03
  Q 678.45 222.34 675.62 220.85"
/>
<path stroke="#86959d" vector-effect="non-scaling-stroke" d="
  M 572.46 299.53
  Q 575.27 307.21 580.14 314.39
  C 585.86 322.81 592.28 330.63 596.76 339.57
  A 0.45 0.45 0.0 0 0 597.58 339.56
  C 597.96 338.72 598.20 337.72 598.65 336.93
  Q 608.97 318.78 612.42 312.17
  Q 613.82 309.48 617.93 300.21"
/>
<path stroke="#83d8b7" vector-effect="non-scaling-stroke" d="
  M 617.93 300.21
  Q 626.91 277.66 620.99 256.50
  C 616.62 240.88 607.91 228.25 596.75 216.72
  Q 595.52 215.45 594.28 216.70
  C 584.99 226.01 575.87 239.09 571.69 251.49
  C 566.71 266.29 566.16 284.69 572.46 299.53"
/>
<path stroke="#0b7165" vector-effect="non-scaling-stroke" d="
  M 617.93 300.21
  Q 610.11 288.92 608.15 285.83
  Q 600.54 273.86 596.61 260.25
  C 596.05 258.32 595.94 256.19 595.62 254.14
  Q 595.62 254.12 595.63 254.12
  Q 595.64 254.12 595.65 254.12
  Q 595.71 254.12 595.71 254.18
  Q 594.96 269.36 586.60 282.11
  Q 582.69 288.06 577.42 295.17
  Q 575.16 298.22 572.46 299.53"
/>
<path stroke="#819fa0" vector-effect="non-scaling-stroke" d="
  M 629.75 320.86
  C 621.47 339.13 615.30 358.72 614.51 378.85
  Q 614.47 379.80 615.37 379.51
  A 1.86 1.84 -82.2 0 0 616.31 378.79
  C 618.92 374.85 621.50 371.15 623.88 366.83
  Q 636.72 343.47 650.53 326.53
  Q 662.10 312.32 678.92 297.42"
/>
<path stroke="#83d8b7" vector-effect="non-scaling-stroke" d="
  M 678.92 297.42
  Q 692.20 285.39 699.83 279.83
  Q 705.38 275.78 718.29 268.07
  C 721.88 265.93 726.12 264.04 730.01 261.88
  Q 730.23 261.76 730.37 261.98
  L 730.51 262.19
  Q 730.51 262.20 730.50 262.21
  Q 725.30 266.07 720.55 270.52
  Q 706.67 283.49 693.37 296.25"
/>
<path stroke="#80ada6" vector-effect="non-scaling-stroke" d="
  M 693.37 296.25
  L 672.46 316.65"
/>
<path stroke="#86959d" vector-effect="non-scaling-stroke" d="
  M 672.46 316.65
  C 659.73 328.93 648.37 342.88 637.68 356.94
  Q 631.54 365.01 627.63 371.05
  Q 627.03 371.98 628.09 371.67
  C 630.64 370.91 633.08 369.93 635.63 369.23
  Q 652.94 364.45 669.74 359.29
  Q 688.92 353.39 706.46 342.86"
/>
<path stroke="#80ada6" vector-effect="non-scaling-stroke" d="
  M 706.46 342.86
  Q 726.41 329.41 740.64 309.32"
/>
<path stroke="#83d8b7" vector-effect="non-scaling-stroke" d="
  M 740.64 309.32
  Q 752.35 291.90 758.52 274.75
  Q 766.78 251.80 770.20 227.69
  A 0.61 0.61 0.0 0 0 769.52 227.00
  Q 765.24 227.55 760.94 227.94
  C 735.69 230.23 710.37 236.90 688.45 249.17
  Q 664.10 262.81 648.40 285.65
  Q 635.88 303.87 629.75 320.86"
/>
<path stroke="#05896e" vector-effect="non-scaling-stroke" d="
  M 740.64 309.32
  Q 740.67 308.86 740.19 308.58
  Q 739.73 308.31 739.26 308.53
  Q 738.55 308.85 737.76 308.90
  Q 727.68 309.53 718.11 307.31
  C 713.83 306.32 709.64 304.58 705.27 303.20
  Q 699.49 301.37 693.37 296.25"
/>
<path stroke="#067b68" vector-effect="non-scaling-stroke" d="
  M 678.92 297.42
  Q 676.70 297.04 674.20 298.13
  Q 673.79 298.31 673.33 298.29
  Q 669.49 298.15 666.08 299.42
  Q 649.97 305.42 639.46 313.25
  Q 636.09 315.75 632.26 320.20
  Q 631.41 321.18 629.75 320.86"
/>
<path stroke="#084554" vector-effect="non-scaling-stroke" d="
  M 706.46 342.86
  Q 701.56 341.15 697.63 338.49
  Q 696.48 337.71 695.21 337.41
  Q 693.96 337.12 692.96 336.41
  C 688.87 333.46 684.85 329.96 681.25 326.07
  Q 676.93 321.40 672.46 316.65"
/>
<path stroke="#7fb4a9" vector-effect="non-scaling-stroke" d="
  M 395.51 479.29
  C 405.69 488.19 417.69 495.72 429.27 502.03
  Q 442.27 509.11 455.25 515.91
  Q 488.76 533.45 513.76 559.41
  A 0.62 0.62 0.0 0 0 514.64 559.41
  L 528.20 545.50"
/>
<path stroke="#928ea3" vector-effect="non-scaling-stroke" d="
  M 528.20 545.50
  Q 545.38 530.05 567.41 518.89
  Q 579.46 512.79 594.97 505.23
  C 612.55 496.66 628.64 486.23 642.45 473.21
  Q 643.55 472.19 645.63 469.78"
/>
<path stroke="#88d2db" vector-effect="non-scaling-stroke" d="
  M 645.63 469.78
  C 649.96 465.45 653.71 460.48 657.84 454.32
  C 669.23 437.33 675.71 418.12 676.73 397.61
  Q 677.21 387.96 676.59 378.62
  Q 676.53 377.68 675.61 377.91
  Q 658.13 382.35 641.22 388.82
  Q 608.58 401.30 584.03 421.86
  Q 578.18 426.76 565.77 438.51
  Q 552.80 450.78 543.33 463.07"
/>
<path stroke="#928ea3" vector-effect="non-scaling-stroke" d="
  M 543.33 463.07
  Q 539.17 466.28 534.84 469.74
  C 527.11 475.93 520.50 482.92 514.77 490.84
  Q 514.54 491.15 514.29 490.86
  Q 505.71 481.02 495.45 472.81
  Q 490.71 469.01 489.10 467.37"
/>
<path stroke="#86cfca" vector-effect="non-scaling-stroke" d="
  M 489.10 467.37
  Q 473.10 452.31 456.27 437.97
  Q 448.74 431.55 437.58 419.92
  Q 422.63 404.36 416.09 385.02"
/>
<path stroke="#83d8b7" vector-effect="non-scaling-stroke" d="
  M 416.09 385.02
  Q 411.18 369.19 413.02 353.25
  Q 416.37 324.23 436.85 302.55
  Q 437.82 301.53 438.97 300.68
  Q 441.12 299.12 438.64 300.08
  C 407.16 312.29 380.62 335.07 366.66 365.88
  Q 359.84 380.94 358.82 398.07
  Q 356.93 430.04 375.13 456.36
  Q 384.48 469.88 395.51 479.29"
/>
<path stroke="#0bab92" vector-effect="non-scaling-stroke" d="
  M 416.09 385.02
  Q 416.21 385.53 416.06 385.84
  Q 415.75 386.47 415.24 385.99
  Q 414.92 385.68 414.49 385.62
  Q 414.03 385.57 413.63 385.81
  Q 411.83 386.93 409.72 386.55
  A 0.09 0.09 0.0 0 0 409.61 386.64
  Q 409.59 387.22 409.02 387.05
  Q 408.64 386.94 408.32 386.74
  Q 403.59 383.73 397.85 384.66
  Q 397.29 384.75 396.77 384.52
  Q 394.17 383.39 391.75 382.72
  Q 390.31 382.32 388.72 382.87
  Q 388.49 382.95 388.31 382.79
  Q 388.28 382.76 388.26 382.71
  Q 387.99 382.00 387.43 382.57
  Q 387.24 382.76 387.12 382.53
  Q 386.76 381.86 386.59 382.62
  Q 386.44 383.35 385.83 384.07"
/>
<path stroke="#83d8b7" vector-effect="non-scaling-stroke" d="
  M 385.83 384.07
  Q 384.42 372.93 386.33 361.92
  Q 386.37 361.69 386.14 361.64
  L 386.13 361.63
  Q 386.07 361.62 386.06 361.68
  Q 385.10 364.63 384.44 367.49
  C 383.81 370.24 379.48 370.55 377.19 370.82
  A 1.72 1.71 89.4 0 0 375.68 372.37
  C 374.44 385.22 375.60 398.06 380.00 410.75
  Q 388.57 435.46 407.59 453.90
  Q 411.76 457.95 422.43 466.86"
/>
<path stroke="#049071" vector-effect="non-scaling-stroke" d="
  M 422.43 466.86
  Q 417.98 469.95 415.73 470.23
  Q 413.42 470.52 410.94 471.33
  Q 410.46 471.48 410.61 471.96
  Q 410.75 472.40 410.72 472.86
  Q 410.69 473.36 410.21 473.52
  Q 408.52 474.06 406.98 474.61
  Q 404.85 475.36 404.32 473.54
  A 0.86 0.85 70.4 0 0 403.17 472.99
  L 398.03 475.14
  Q 397.58 475.33 397.08 475.31
  L 395.48 475.25
  Q 394.66 475.22 395.14 475.88
  Q 396.39 477.57 395.51 479.29"
/>
<path stroke="#1a617d" vector-effect="non-scaling-stroke" d="
  M 489.10 467.37
  L 488.97 467.85
  A 1.56 1.55 -73.5 0 1 487.01 468.92
  Q 480.28 466.84 474.43 464.51
  Q 460.61 459.02 444.41 451.12
  C 435.94 447.00 427.79 441.78 420.14 436.48
  Q 407.07 427.43 394.76 414.01
  Q 394.44 413.66 393.96 413.96
  A 0.71 0.66 -10.1 0 0 393.68 414.33
  L 393.51 414.84"
/>
<path stroke="#86cfca" vector-effect="non-scaling-stroke" d="
  M 385.83 384.07
  Q 387.26 399.89 393.51 414.84"
/>
<path stroke="#928ea3" vector-effect="non-scaling-stroke" d="
  M 393.51 414.84
  Q 399.72 428.82 409.48 440.78
  Q 419.31 452.82 431.48 462.49
  Q 441.05 470.09 450.86 477.38
  Q 457.82 482.54 464.18 489.19"
/>
<path stroke="#7fb4a9" vector-effect="non-scaling-stroke" d="
  M 464.18 489.19
  Q 441.41 480.77 422.43 466.86"
/>
<path stroke="#13465c" vector-effect="non-scaling-stroke" d="
  M 528.20 545.50
  Q 505.93 515.94 474.44 495.61
  Q 469.10 492.16 464.18 489.19"
/>
<path stroke="#1c648e" vector-effect="non-scaling-stroke" d="
  M 645.63 469.78
  Q 645.57 463.58 645.32 461.75
  Q 643.45 447.62 643.04 441.51
  Q 641.81 423.17 651.14 407.77
  Q 652.18 406.04 650.83 407.54
  C 649.22 409.33 647.73 411.16 645.99 412.79
  Q 634.28 423.74 622.81 431.29
  Q 598.51 447.28 569.99 455.64
  Q 551.65 461.02 543.33 463.07"
/>
<path stroke="#f190c4" vector-effect="non-scaling-stroke" d="
  M 699.39 442.30
  Q 696.63 454.72 694.08 466.75
  C 692.32 475.04 690.66 485.79 697.49 492.05
  C 700.95 495.22 705.74 495.91 710.09 494.29
  C 717.65 491.47 719.50 485.06 719.54 477.75
  Q 719.68 452.28 717.76 424.00"
/>
<path stroke="#fea1cd" vector-effect="non-scaling-stroke" d="
  M 717.76 424.00
  Q 717.34 414.21 717.53 408.26
  C 717.80 399.57 721.64 391.60 728.13 385.50
  Q 741.01 373.39 759.24 374.35
  C 778.72 375.38 793.40 389.71 798.50 408.15
  C 800.54 415.51 801.77 424.53 803.34 430.13
  Q 804.84 435.48 809.89 438.08
  C 816.21 441.35 824.07 436.39 825.40 429.84
  Q 826.36 425.10 824.75 420.16
  Q 806.45 363.95 767.16 317.43
  A 0.72 0.72 0.0 0 0 765.99 317.53
  C 750.81 343.64 727.04 362.95 699.01 374.03
  Q 698.42 374.27 698.56 374.89
  C 699.38 378.38 700.35 381.76 700.91 385.33
  Q 705.42 414.08 699.39 442.30"
/>
<path stroke="#f135a2" vector-effect="non-scaling-stroke" d="
  M 717.76 424.00
  Q 716.36 429.85 716.75 436.25
  Q 716.78 436.67 716.62 437.06
  Q 716.16 438.15 716.40 439.46
  Q 716.48 439.88 716.16 440.17
  Q 715.39 440.87 714.43 441.09
  Q 713.87 441.21 713.78 441.78
  Q 713.65 442.67 712.81 442.93
  Q 712.15 443.14 711.88 443.78
  L 710.32 447.37
  Q 710.12 447.84 709.62 447.90
  Q 708.30 448.06 708.09 449.40
  A 1.01 1.01 0.0 0 1 707.32 450.22
  Q 705.47 450.64 704.49 452.23
  Q 703.97 453.07 704.07 452.09
  Q 704.10 451.84 703.73 451.90
  Q 703.13 452.00 702.98 452.59
  Q 702.79 453.36 701.97 453.24
  A 0.61 0.60 -86.2 0 1 701.45 452.64
  Q 701.50 447.03 699.39 442.30"
/>
<path stroke="#f190c4" vector-effect="non-scaling-stroke" d="
  M 441.19 387.33
  Q 445.73 398.15 453.92 406.59
  Q 461.56 414.47 469.03 420.33
  Q 481.25 429.90 491.92 438.72
  C 499.83 445.26 506.74 452.17 513.64 459.63
  A 0.96 0.95 43.2 0 0 515.08 459.59
  Q 526.04 446.09 539.54 434.57
  Q 551.97 423.96 562.90 414.18
  Q 568.43 409.22 573.06 403.16
  C 590.55 380.28 589.12 346.89 564.59 329.18"
/>
<path stroke="#fea1cd" vector-effect="non-scaling-stroke" d="
  M 564.59 329.18
  Q 554.70 321.81 541.74 321.43
  Q 525.58 320.95 513.79 331.98
  A 1.23 1.22 -44.8 0 1 512.12 331.98
  Q 503.89 324.31 492.62 322.11
  Q 472.96 318.29 456.70 329.45
  Q 449.04 334.70 443.96 343.83
  Q 432.93 363.64 441.19 387.33"
/>
<path stroke="#f135a2" vector-effect="non-scaling-stroke" d="
  M 564.59 329.18
  Q 567.99 333.26 572.00 336.75
  Q 573.33 337.91 577.39 344.60
  Q 579.92 348.76 580.67 352.10
  Q 581.60 356.26 582.59 360.36
  Q 582.72 360.93 582.35 361.39
  Q 582.09 361.69 581.97 362.08
  Q 581.67 363.04 580.71 363.01
  Q 580.21 362.99 579.79 363.27
  Q 578.26 364.30 576.72 364.91
  Q 576.04 365.17 575.98 365.87
  Q 575.94 366.39 575.46 366.57
  Q 573.03 367.48 570.38 368.12
  Q 569.32 368.38 567.87 369.26
  Q 567.46 369.51 566.99 369.62
  L 564.43 370.23
  Q 563.86 370.37 563.75 370.95
  Q 562.28 379.13 557.95 385.74
  C 555.68 389.19 552.50 392.44 549.58 395.30
  Q 544.91 399.87 538.69 402.77
  Q 518.45 412.20 497.28 406.61
  Q 475.08 400.74 463.12 380.47
  Q 462.87 380.04 462.39 380.15
  Q 458.42 381.05 455.39 383.44
  Q 454.97 383.77 454.44 383.84
  Q 452.69 384.08 451.06 384.93
  Q 450.59 385.17 450.07 385.09
  Q 448.90 384.92 448.22 385.78
  Q 448.06 385.98 448.11 385.73
  Q 448.12 385.68 448.10 385.63
  Q 447.99 385.38 447.76 385.51
  C 446.27 386.31 444.62 385.83 443.83 384.34
  Q 442.60 382.00 441.57 379.91
  Q 441.16 379.09 441.10 380.01
  Q 441.00 381.64 441.97 382.92
  Q 442.26 383.31 442.07 383.76
  Q 441.71 384.57 442.02 385.41
  Q 442.20 385.91 441.89 386.36
  L 441.19 387.33"
/>
<path stroke="#8c8d9c" vector-effect="non-scaling-stroke" d="
  M 251.48 432.30
  C 242.68 463.62 240.44 495.32 242.64 527.82
  C 247.21 595.16 281.90 654.80 332.27 698.95
  Q 344.69 709.83 356.28 720.29
  C 369.40 732.14 380.38 746.08 387.07 762.59
  Q 392.35 775.62 391.76 791.72
  C 391.58 796.59 390.20 801.61 391.16 806.38
  Q 392.62 813.63 399.92 816.41
  Q 439.28 831.40 481.53 834.65
  Q 493.93 835.61 497.17 824.45
  Q 500.48 813.05 502.34 798.76"
/>
<path stroke="#928ea3" vector-effect="non-scaling-stroke" d="
  M 502.34 798.76
  L 504.90 780.19"
/>
<path stroke="#ac94c9" vector-effect="non-scaling-stroke" d="
  M 504.90 780.19
  Q 506.32 767.78 506.60 755.25
  Q 507.23 726.21 506.70 697.26
  Q 506.54 688.36 505.56 679.57
  Q 502.00 647.52 483.09 623.60
  Q 472.11 609.70 459.33 599.67
  Q 446.15 589.34 432.81 579.03
  Q 420.42 569.46 412.66 558.86
  Q 406.05 549.84 403.68 542.88
  Q 401.22 535.64 398.36 527.22
  Q 396.35 521.28 393.14 517.50
  C 381.31 503.54 363.53 512.12 359.94 527.98
  Q 357.34 539.48 360.18 551.84"
/>
<path stroke="#928ea3" vector-effect="non-scaling-stroke" d="
  M 360.18 551.84
  Q 363.78 567.53 372.32 580.43
  Q 382.50 595.81 397.58 608.45
  Q 407.80 617.01 419.38 626.14"
/>
<path stroke="#ac94c9" vector-effect="non-scaling-stroke" d="
  M 419.38 626.14
  Q 405.01 626.82 391.93 622.39
  Q 384.76 619.96 373.67 614.29
  Q 361.14 607.89 350.45 599.69
  Q 326.19 581.06 309.51 558.41
  Q 286.95 527.77 285.14 488.56
  C 284.09 465.68 285.77 444.77 288.19 422.60
  C 289.02 415.06 288.89 407.14 282.62 402.07
  Q 277.84 398.21 271.55 398.84
  C 263.07 399.68 259.34 405.90 256.96 413.49
  Q 253.18 425.51 251.48 432.30"
/>
<path stroke="#40267d" vector-effect="non-scaling-stroke" d="
  M 419.38 626.14
  Q 426.81 626.60 434.70 627.85
  C 436.73 628.17 438.37 629.26 440.28 629.54
  Q 441.37 629.70 440.54 628.97
  C 438.00 626.72 435.01 624.98 432.42 622.77
  Q 429.35 620.15 426.02 617.40
  C 404.22 599.46 384.58 577.41 373.36 551.22
  Q 373.14 550.71 372.59 550.82
  Q 372.03 550.93 371.62 551.24
  A 1.19 1.17 32.8 0 1 370.61 551.45
  Q 366.60 550.47 365.26 550.86
  Q 362.95 551.53 360.18 551.84"
/>
<path stroke="#40267d" vector-effect="non-scaling-stroke" d="
  M 504.90 780.19
  L 496.26 778.96
  A 1.86 1.85 -2.3 0 1 494.71 777.53
  Q 492.76 768.57 489.62 760.53
  Q 486.80 753.31 482.44 746.49
  C 475.54 735.72 466.75 725.97 456.57 717.99
  Q 449.10 712.13 442.43 707.59
  C 421.90 693.58 400.77 682.09 379.79 670.10
  Q 362.45 660.20 344.08 648.17
  Q 332.03 640.27 314.83 624.96"
/>
<path stroke="#392576" vector-effect="non-scaling-stroke" d="
  M 314.83 624.96
  Q 285.16 593.64 268.67 554.76
  Q 256.94 527.11 252.64 494.31
  Q 252.24 491.26 251.60 484.12
  Q 251.17 479.33 250.98 473.90
  C 250.80 469.15 250.36 464.42 250.39 459.69
  Q 250.45 450.96 250.80 442.24
  Q 250.85 440.99 251.27 437.29
  Q 251.55 434.79 251.48 432.30"
/>
<path stroke="#201f50" vector-effect="non-scaling-stroke" d="
  M 314.83 624.96
  L 314.19 627.67
  Q 314.07 628.16 314.38 628.57
  Q 321.94 638.63 330.41 649.69
  C 335.85 656.79 342.14 663.54 348.38 669.85
  C 359.98 681.61 370.89 692.35 382.65 703.21
  Q 391.57 711.45 401.50 720.99
  Q 417.75 736.60 426.55 756.91
  Q 429.54 763.80 431.24 770.64
  Q 432.03 773.82 432.09 776.92
  Q 432.15 780.04 432.52 783.04
  A 3.30 3.29 88.5 0 0 435.56 785.93
  Q 437.62 786.07 439.85 785.71
  Q 442.09 785.34 444.20 785.29
  Q 447.25 785.21 450.33 785.66
  Q 452.41 785.97 454.18 785.51
  Q 454.53 785.42 454.87 785.52
  Q 457.45 786.25 460.18 785.45
  Q 462.46 784.79 465.08 785.60
  Q 465.54 785.74 465.92 785.44
  Q 466.53 784.96 467.01 785.59
  Q 467.39 786.10 467.90 785.73
  Q 469.59 784.51 471.73 785.05
  Q 472.18 785.16 472.63 785.03
  Q 475.33 784.25 478.13 785.07
  A 1.53 1.51 -12.8 0 1 478.87 785.53
  Q 479.61 786.36 480.59 786.10
  Q 481.02 785.99 481.40 786.21
  L 483.40 787.37
  Q 483.82 787.61 484.21 787.32
  Q 484.51 787.09 484.68 787.46
  Q 484.82 787.77 485.13 787.92
  Q 485.81 788.27 486.06 788.98
  C 486.48 790.18 487.82 791.03 488.92 791.56
  Q 489.27 791.72 489.27 792.11
  L 489.27 792.58
  A 1.33 1.31 -63.0 0 0 489.51 793.34
  Q 490.61 794.91 490.82 796.88
  A 0.81 0.80 -2.1 0 0 491.59 797.59
  L 492.69 797.64
  Q 493.23 797.67 493.57 798.08
  L 494.50 799.19
  Q 494.78 799.53 495.20 799.68
  Q 497.12 800.36 498.82 801.96
  Q 499.46 802.56 499.89 801.79
  L 500.52 800.65
  A 2.46 2.25 -10.5 0 1 500.92 800.12
  L 502.34 798.76"
/>
<path stroke="#7fb4a9" vector-effect="non-scaling-stroke" d="
  M 608.55 626.09
  Q 627.24 612.17 632.91 607.41
  C 643.95 598.15 654.77 586.52 661.56 573.53
  C 667.98 561.23 671.52 550.84 671.58 537.00
  Q 671.61 528.41 667.69 521.75"
/>
<path stroke="#83d8b7" vector-effect="non-scaling-stroke" d="
  M 667.69 521.75
  C 662.85 511.65 651.17 507.17 641.45 513.22
  C 638.09 515.31 635.07 519.80 633.46 523.46
  Q 630.61 529.97 627.91 538.37
  C 624.12 550.13 617.61 560.51 608.69 568.90
  C 600.29 576.79 591.67 583.48 581.80 590.83
  C 571.63 598.41 562.09 606.54 553.69 615.59
  Q 541.10 629.16 533.26 646.15
  C 524.86 664.35 523.57 683.53 523.41 704.61
  Q 523.19 733.89 523.51 748.48"
/>
<path stroke="#83c7b0" vector-effect="non-scaling-stroke" d="
  M 523.51 748.48
  Q 523.72 772.69 527.40 796.73"
/>
<path stroke="#7fb4a9" vector-effect="non-scaling-stroke" d="
  M 527.40 796.73
  L 529.15 807.44"
/>
<path stroke="#819fa0" vector-effect="non-scaling-stroke" d="
  M 529.15 807.44
  Q 530.94 819.44 532.78 824.76
  C 535.00 831.14 538.56 835.22 546.19 834.62
  Q 584.39 831.63 622.23 819.18
  C 631.25 816.21 639.76 812.97 638.50 801.26
  Q 637.92 795.78 637.75 790.11
  C 637.16 769.48 647.07 749.60 660.65 733.76
  Q 668.12 725.04 674.19 719.68
  C 690.93 704.92 707.95 690.38 722.81 673.80"
/>
<path stroke="#80ada6" vector-effect="non-scaling-stroke" d="
  M 722.81 673.80
  Q 756.15 637.14 772.67 593.25
  Q 788.70 550.68 788.33 503.00
  Q 788.10 472.92 781.99 446.48"
/>
<path stroke="#83d8b7" vector-effect="non-scaling-stroke" d="
  M 781.99 446.48
  Q 778.95 432.46 774.36 417.99
  Q 772.59 412.42 769.52 406.88
  C 763.24 395.54 747.68 396.22 742.36 407.80
  C 740.15 412.61 740.61 418.50 741.25 423.75
  Q 742.32 432.51 743.27 441.24
  Q 745.68 463.38 744.78 487.26
  Q 744.33 499.06 742.90 507.15
  C 738.43 532.31 725.91 553.84 708.67 572.69
  Q 683.79 599.89 654.56 614.99
  Q 638.14 623.47 618.76 625.83
  Q 616.25 626.14 608.55 626.09"
/>
<path stroke="#05896e" vector-effect="non-scaling-stroke" d="
  M 781.99 446.48
  Q 780.99 451.45 780.87 460.00
  Q 780.78 466.52 778.63 487.50
  Q 778.10 492.70 776.14 504.77
  C 775.15 510.83 773.53 516.63 772.20 522.56
  Q 770.72 529.16 768.78 535.79
  Q 762.01 558.85 747.03 583.78
  Q 732.48 607.99 714.98 626.00"
/>
<path stroke="#049071" vector-effect="non-scaling-stroke" d="
  M 714.98 626.00
  Q 704.06 634.95 700.08 637.82
  Q 681.24 651.35 662.34 662.63
  Q 643.62 673.79 623.17 684.80
  C 614.97 689.22 606.72 694.06 598.73 699.16
  C 574.66 714.53 551.88 733.54 540.66 760.24"
/>
<path stroke="#08a378" vector-effect="non-scaling-stroke" d="
  M 540.66 760.24
  Q 538.26 758.78 536.77 756.54
  Q 536.50 756.13 536.05 755.90
  Q 535.25 755.48 534.82 754.67
  A 1.44 1.39 -88.9 0 0 534.32 754.13
  L 526.54 749.36
  Q 526.25 749.19 525.92 749.20
  Q 524.87 749.23 524.64 748.03
  Q 524.57 747.68 524.25 747.81
  Q 523.96 747.93 523.51 748.48"
/>
<path stroke="#049071" vector-effect="non-scaling-stroke" d="
  M 667.69 521.75
  Q 667.36 521.84 666.90 521.46
  Q 666.26 520.92 666.37 521.75
  Q 666.47 522.53 665.98 523.27
  Q 665.82 523.51 665.55 523.41
  Q 665.38 523.35 665.37 523.22
  Q 665.25 522.12 664.93 523.18
  Q 664.07 526.03 663.58 528.77
  Q 662.85 532.84 661.69 536.50
  Q 659.51 543.37 657.14 550.45
  Q 656.13 553.48 654.64 556.50
  C 645.33 575.47 631.78 592.62 616.24 606.73
  Q 608.57 613.69 600.51 620.97
  C 598.35 622.91 596.18 624.52 594.00 626.25
  Q 593.25 626.84 594.20 626.88
  Q 595.08 626.92 595.91 626.49
  C 597.89 625.46 600.72 625.47 602.84 625.83
  Q 604.19 626.06 605.67 625.94
  Q 607.25 625.81 608.55 626.09"
/>
<path stroke="#035057" vector-effect="non-scaling-stroke" d="
  M 722.81 673.80
  Q 722.82 673.29 722.27 673.45
  Q 721.87 673.57 721.92 673.96
  Q 721.94 674.14 721.76 674.10
  Q 720.85 673.88 720.44 674.70
  Q 720.27 675.02 720.06 674.73
  Q 719.66 674.17 719.02 674.53
  Q 718.01 675.10 716.93 675.47
  Q 716.57 675.59 716.61 675.96
  Q 716.62 676.12 716.77 676.25
  Q 717.04 676.51 717.27 676.22
  Q 717.37 676.10 717.52 676.10
  Q 717.63 676.10 717.71 676.17
  Q 717.80 676.26 717.87 676.41
  Q 717.97 676.62 717.73 676.63
  Q 716.59 676.71 716.15 675.73
  Q 715.96 675.30 715.52 675.15
  Q 712.55 674.13 710.75 673.75
  Q 710.25 673.65 709.81 673.94
  A 0.74 0.73 -38.6 0 1 708.88 673.84
  Q 708.56 673.51 708.14 673.67
  Q 707.75 673.82 707.33 673.75
  Q 702.54 672.94 697.99 672.99
  Q 697.17 673.00 696.59 673.55
  Q 696.49 673.65 696.39 673.56
  Q 696.29 673.48 696.32 673.32
  Q 696.34 673.23 696.25 673.23
  Q 688.67 673.37 683.99 675.34
  Q 682.09 676.14 680.45 674.26
  Q 680.38 674.18 680.43 674.08
  Q 680.48 673.96 680.60 673.88
  Q 680.69 673.81 680.64 673.71
  Q 680.40 673.26 680.01 673.15
  Q 679.51 673.00 679.27 673.46
  Q 677.92 676.03 675.22 677.10"
/>
<path stroke="#016560" vector-effect="non-scaling-stroke" d="
  M 675.22 677.10
  Q 692.16 660.02 706.29 640.66
  C 708.77 637.26 711.64 632.52 714.57 628.59
  Q 714.87 628.20 714.89 627.70
  L 714.98 626.00"
/>
<path stroke="#025759" vector-effect="non-scaling-stroke" d="
  M 675.22 677.10
  Q 658.81 693.23 641.75 708.75
  C 634.08 715.72 626.10 724.04 620.47 730.49
  Q 608.98 743.68 602.22 759.67
  C 599.61 765.85 597.75 772.62 597.49 779.05
  Q 597.23 785.59 597.74 793.97
  A 1.11 1.10 -88.1 0 1 596.51 795.13
  Q 595.14 794.97 593.92 795.18
  C 585.36 796.65 576.56 798.42 568.01 799.46
  Q 558.84 800.56 549.73 801.73
  Q 546.49 802.14 543.15 802.10
  Q 539.48 802.05 536.35 802.41
  Q 536.01 802.45 535.72 802.64
  Q 535.30 802.92 534.52 802.88
  Q 529.77 802.68 529.15 807.44"
/>
<path stroke="#047f6a" vector-effect="non-scaling-stroke" d="
  M 527.40 796.73
  L 528.12 796.58
  Q 528.55 796.50 528.92 796.74
  Q 529.44 797.07 529.97 796.67
  Q 530.36 796.37 530.46 795.90
  C 530.64 795.04 531.07 794.49 531.20 793.66
  Q 533.90 776.38 540.66 760.24"
/>
<path stroke="#83c7b0" vector-effect="non-scaling-stroke" d="
  M 227.44 663.00
  Q 255.61 716.03 301.79 754.44
  Q 311.46 762.49 324.26 771.93
  Q 332.36 777.91 334.84 778.84
  Q 341.11 781.17 347.74 776.87
  C 353.11 773.38 354.87 766.11 352.28 760.22
  Q 350.52 756.23 346.62 753.36
  Q 334.87 744.76 323.91 736.10
  Q 293.42 712.02 270.92 680.60
  Q 267.49 675.81 264.04 670.95"
/>
<path stroke="#83d8b7" vector-effect="non-scaling-stroke" d="
  M 264.04 670.95
  Q 236.84 628.84 224.94 578.75
  Q 213.00 528.52 218.72 480.29
  Q 219.57 473.07 218.81 470.36
  C 216.81 463.19 209.66 460.25 202.85 462.43
  C 197.09 464.28 193.82 470.01 193.27 475.70
  Q 190.52 504.60 191.73 533.76
  Q 192.17 544.23 193.30 553.70
  Q 200.21 611.39 227.44 663.00"
/>
<path stroke="#08a378" vector-effect="non-scaling-stroke" d="
  M 264.04 670.95
  Q 262.92 671.62 262.35 671.21
  A 0.11 0.10 -30.5 0 1 262.40 671.02
  Q 262.55 671.00 262.66 670.91
  Q 263.14 670.50 262.57 670.26
  Q 260.45 669.36 258.83 670.42
  Q 258.51 670.63 258.15 670.46
  Q 256.08 669.44 254.37 668.06
  Q 253.02 666.97 251.13 666.58
  Q 248.72 666.08 246.54 665.33
  Q 245.63 665.01 245.45 665.98
  Q 245.39 666.27 245.63 666.45
  Q 246.44 667.07 246.45 668.15
  Q 246.46 668.81 245.81 668.67
  Q 242.23 667.86 239.63 666.59
  Q 234.67 664.16 230.36 662.65
  Q 229.80 662.45 230.13 662.95
  Q 230.24 663.12 230.01 663.26
  Q 229.65 663.47 229.28 663.30
  Q 228.16 662.79 227.44 663.00"
/>
<path stroke="#928ea3" vector-effect="non-scaling-stroke" d="
  M 771.73 661.75
  Q 746.47 702.91 709.11 733.38
  Q 696.17 743.94 684.44 752.45
  Q 676.18 758.44 676.69 767.18
  C 677.11 774.41 682.82 779.73 690.03 779.53
  C 696.11 779.37 701.10 775.17 705.89 771.77
  Q 730.51 754.29 751.36 733.11
  Q 778.12 705.93 796.94 672.74"
/>
<path stroke="#ac94c9" vector-effect="non-scaling-stroke" d="
  M 796.94 672.74
  Q 797.91 671.43 800.02 667.52
  Q 829.94 612.29 836.68 551.95
  Q 840.87 514.38 836.48 475.32
  Q 836.09 471.88 834.65 468.96
  C 831.13 461.78 822.06 459.76 815.60 464.07
  C 809.39 468.22 810.42 473.30 811.19 481.00
  Q 820.99 578.11 771.73 661.75"
/>
<path stroke="#40267d" vector-effect="non-scaling-stroke" d="
  M 796.94 672.74
  Q 796.61 670.62 796.98 668.38
  Q 797.08 667.78 796.72 668.27
  L 794.23 671.70
  Q 793.96 672.08 793.50 672.07
  Q 793.08 672.06 792.81 672.39
  Q 791.75 673.75 790.86 675.07
  A 0.31 0.30 26.0 0 1 790.50 675.19
  Q 790.35 675.15 790.26 675.00
  Q 790.08 674.69 790.08 675.05
  Q 790.07 675.24 789.89 675.26
  A 0.22 0.21 -4.6 0 1 789.64 675.05
  Q 789.63 674.30 789.85 673.66
  A 0.37 0.36 76.1 0 0 789.24 673.29
  Q 788.64 673.93 787.77 674.27
  Q 787.22 674.48 786.86 674.01
  Q 785.63 672.39 783.36 672.21
  Q 782.94 672.18 782.71 671.83
  Q 782.06 670.83 780.86 670.57
  A 1.59 1.58 -22.0 0 1 780.41 670.38
  L 778.12 668.95
  Q 777.74 668.70 777.47 668.33
  Q 776.77 667.35 775.58 666.75
  Q 775.20 666.55 774.97 666.15
  Q 774.90 666.03 774.89 665.90
  Q 774.87 665.25 774.23 665.35
  Q 772.98 665.54 772.18 664.67
  Q 771.85 664.32 772.00 663.85
  Q 772.27 663.00 771.73 661.75"
/>
<path stroke="#fea1cd" vector-effect="non-scaling-stroke" d="
  M 486.17 352.13
  A 10.93 10.93 0.0 0 0 475.24 341.20
  A 10.93 10.93 0.0 0 0 464.31 352.13
  A 10.93 10.93 0.0 0 0 475.24 363.06
  A 10.93 10.93 0.0 0 0 486.17 352.13"
/>
<path stroke="#928ea3" vector-effect="non-scaling-stroke" d="
  M 625.08 443.61
  C 622.70 441.95 620.77 442.03 618.82 443.88
  Q 607.36 454.73 593.85 464.61
  Q 585.07 471.03 578.56 476.58
  Q 577.31 477.65 576.42 478.95
  Q 574.73 481.44 577.62 480.64
  C 594.81 475.90 611.07 464.41 624.12 451.11
  C 625.99 449.20 628.23 445.80 625.08 443.61"
/>
</g>
<path fill="#fefcef" d="
  M 0.00 0.00
  L 1024.00 0.00
  L 1024.00 1024.00
  L 0.00 1024.00
  L 0.00 0.00
  Z
  M 534.46 189.22
  Q 530.29 189.82 526.55 191.58
  C 512.68 198.16 501.32 211.32 494.79 224.98
  Q 490.01 234.99 485.28 245.24
  Q 479.64 257.46 470.30 271.26
  C 466.53 276.83 461.97 282.42 457.79 288.05
  Q 456.87 288.58 456.53 289.56
  A 0.53 0.53 0.0 0 0 457.10 290.26
  Q 465.46 289.17 473.88 288.06
  Q 490.59 285.84 505.14 280.40
  C 528.38 271.69 547.33 253.72 555.00 229.59
  C 560.29 212.96 558.78 186.19 534.46 189.22
  Z
  M 309.23 397.25
  Q 312.37 404.26 312.22 412.00
  Q 312.00 423.35 311.24 437.26
  Q 310.01 459.85 310.80 481.97
  C 311.16 492.08 321.23 498.38 330.40 493.22
  C 337.26 489.36 338.52 482.25 337.30 475.00
  Q 335.74 465.75 333.74 457.02
  C 332.05 449.68 330.92 442.30 329.78 434.95
  Q 327.97 423.41 328.56 412.58
  C 330.10 383.99 339.84 356.68 357.52 334.48
  Q 372.61 315.53 391.97 300.50
  Q 405.17 290.26 417.27 281.00
  C 434.49 267.83 449.98 252.48 460.04 233.06
  Q 467.55 218.98 468.37 202.80
  A 0.95 0.95 0.0 0 0 467.30 201.81
  C 461.03 202.61 454.87 203.57 448.64 205.14
  C 402.21 216.89 358.44 237.92 319.58 266.08
  Q 259.90 309.33 224.95 374.22
  Q 215.18 392.36 208.29 412.17
  C 205.55 420.04 201.28 430.63 209.42 436.94
  Q 212.61 439.41 216.47 438.89
  C 224.36 437.82 226.72 431.83 227.71 424.93
  Q 229.24 414.36 231.90 405.56
  C 235.16 394.74 241.65 386.12 251.19 380.23
  Q 261.51 373.85 275.26 374.45
  C 289.89 375.09 302.53 384.16 309.23 397.25
  Z
  M 675.62 220.85
  Q 650.80 207.79 623.73 203.42
  A 0.49 0.49 0.0 0 0 623.24 204.18
  Q 638.36 226.82 644.91 251.37
  A 0.45 0.45 0.0 0 0 645.72 251.50
  Q 646.77 249.86 648.23 248.44
  Q 663.56 233.56 681.21 224.67
  A 0.37 0.36 47.4 0 0 681.23 224.03
  Q 678.45 222.34 675.62 220.85
  Z
  M 572.46 299.53
  Q 575.27 307.21 580.14 314.39
  C 585.86 322.81 592.28 330.63 596.76 339.57
  A 0.45 0.45 0.0 0 0 597.58 339.56
  C 597.96 338.72 598.20 337.72 598.65 336.93
  Q 608.97 318.78 612.42 312.17
  Q 613.82 309.48 617.93 300.21
  Q 626.91 277.66 620.99 256.50
  C 616.62 240.88 607.91 228.25 596.75 216.72
  Q 595.52 215.45 594.28 216.70
  C 584.99 226.01 575.87 239.09 571.69 251.49
  C 566.71 266.29 566.16 284.69 572.46 299.53
  Z
  M 629.75 320.86
  C 621.47 339.13 615.30 358.72 614.51 378.85
  Q 614.47 379.80 615.37 379.51
  A 1.86 1.84 -82.2 0 0 616.31 378.79
  C 618.92 374.85 621.50 371.15 623.88 366.83
  Q 636.72 343.47 650.53 326.53
  Q 662.10 312.32 678.92 297.42
  Q 692.20 285.39 699.83 279.83
  Q 705.38 275.78 718.29 268.07
  C 721.88 265.93 726.12 264.04 730.01 261.88
  Q 730.23 261.76 730.37 261.98
  L 730.51 262.19
  Q 730.51 262.20 730.50 262.21
  Q 725.30 266.07 720.55 270.52
  Q 706.67 283.49 693.37 296.25
  L 672.46 316.65
  C 659.73 328.93 648.37 342.88 637.68 356.94
  Q 631.54 365.01 627.63 371.05
  Q 627.03 371.98 628.09 371.67
  C 630.64 370.91 633.08 369.93 635.63 369.23
  Q 652.94 364.45 669.74 359.29
  Q 688.92 353.39 706.46 342.86
  Q 726.41 329.41 740.64 309.32
  Q 752.35 291.90 758.52 274.75
  Q 766.78 251.80 770.20 227.69
  A 0.61 0.61 0.0 0 0 769.52 227.00
  Q 765.24 227.55 760.94 227.94
  C 735.69 230.23 710.37 236.90 688.45 249.17
  Q 664.10 262.81 648.40 285.65
  Q 635.88 303.87 629.75 320.86
  Z
  M 395.51 479.29
  C 405.69 488.19 417.69 495.72 429.27 502.03
  Q 442.27 509.11 455.25 515.91
  Q 488.76 533.45 513.76 559.41
  A 0.62 0.62 0.0 0 0 514.64 559.41
  L 528.20 545.50
  Q 545.38 530.05 567.41 518.89
  Q 579.46 512.79 594.97 505.23
  C 612.55 496.66 628.64 486.23 642.45 473.21
  Q 643.55 472.19 645.63 469.78
  C 649.96 465.45 653.71 460.48 657.84 454.32
  C 669.23 437.33 675.71 418.12 676.73 397.61
  Q 677.21 387.96 676.59 378.62
  Q 676.53 377.68 675.61 377.91
  Q 658.13 382.35 641.22 388.82
  Q 608.58 401.30 584.03 421.86
  Q 578.18 426.76 565.77 438.51
  Q 552.80 450.78 543.33 463.07
  Q 539.17 466.28 534.84 469.74
  C 527.11 475.93 520.50 482.92 514.77 490.84
  Q 514.54 491.15 514.29 490.86
  Q 505.71 481.02 495.45 472.81
  Q 490.71 469.01 489.10 467.37
  Q 473.10 452.31 456.27 437.97
  Q 448.74 431.55 437.58 419.92
  Q 422.63 404.36 416.09 385.02
  Q 411.18 369.19 413.02 353.25
  Q 416.37 324.23 436.85 302.55
  Q 437.82 301.53 438.97 300.68
  Q 441.12 299.12 438.64 300.08
  C 407.16 312.29 380.62 335.07 366.66 365.88
  Q 359.84 380.94 358.82 398.07
  Q 356.93 430.04 375.13 456.36
  Q 384.48 469.88 395.51 479.29
  Z
  M 699.39 442.30
  Q 696.63 454.72 694.08 466.75
  C 692.32 475.04 690.66 485.79 697.49 492.05
  C 700.95 495.22 705.74 495.91 710.09 494.29
  C 717.65 491.47 719.50 485.06 719.54 477.75
  Q 719.68 452.28 717.76 424.00
  Q 717.34 414.21 717.53 408.26
  C 717.80 399.57 721.64 391.60 728.13 385.50
  Q 741.01 373.39 759.24 374.35
  C 778.72 375.38 793.40 389.71 798.50 408.15
  C 800.54 415.51 801.77 424.53 803.34 430.13
  Q 804.84 435.48 809.89 438.08
  C 816.21 441.35 824.07 436.39 825.40 429.84
  Q 826.36 425.10 824.75 420.16
  Q 806.45 363.95 767.16 317.43
  A 0.72 0.72 0.0 0 0 765.99 317.53
  C 750.81 343.64 727.04 362.95 699.01 374.03
  Q 698.42 374.27 698.56 374.89
  C 699.38 378.38 700.35 381.76 700.91 385.33
  Q 705.42 414.08 699.39 442.30
  Z
  M 441.19 387.33
  Q 445.73 398.15 453.92 406.59
  Q 461.56 414.47 469.03 420.33
  Q 481.25 429.90 491.92 438.72
  C 499.83 445.26 506.74 452.17 513.64 459.63
  A 0.96 0.95 43.2 0 0 515.08 459.59
  Q 526.04 446.09 539.54 434.57
  Q 551.97 423.96 562.90 414.18
  Q 568.43 409.22 573.06 403.16
  C 590.55 380.28 589.12 346.89 564.59 329.18
  Q 554.70 321.81 541.74 321.43
  Q 525.58 320.95 513.79 331.98
  A 1.23 1.22 -44.8 0 1 512.12 331.98
  Q 503.89 324.31 492.62 322.11
  Q 472.96 318.29 456.70 329.45
  Q 449.04 334.70 443.96 343.83
  Q 432.93 363.64 441.19 387.33
  Z
  M 251.48 432.30
  C 242.68 463.62 240.44 495.32 242.64 527.82
  C 247.21 595.16 281.90 654.80 332.27 698.95
  Q 344.69 709.83 356.28 720.29
  C 369.40 732.14 380.38 746.08 387.07 762.59
  Q 392.35 775.62 391.76 791.72
  C 391.58 796.59 390.20 801.61 391.16 806.38
  Q 392.62 813.63 399.92 816.41
  Q 439.28 831.40 481.53 834.65
  Q 493.93 835.61 497.17 824.45
  Q 500.48 813.05 502.34 798.76
  L 504.90 780.19
  Q 506.32 767.78 506.60 755.25
  Q 507.23 726.21 506.70 697.26
  Q 506.54 688.36 505.56 679.57
  Q 502.00 647.52 483.09 623.60
  Q 472.11 609.70 459.33 599.67
  Q 446.15 589.34 432.81 579.03
  Q 420.42 569.46 412.66 558.86
  Q 406.05 549.84 403.68 542.88
  Q 401.22 535.64 398.36 527.22
  Q 396.35 521.28 393.14 517.50
  C 381.31 503.54 363.53 512.12 359.94 527.98
  Q 357.34 539.48 360.18 551.84
  Q 363.78 567.53 372.32 580.43
  Q 382.50 595.81 397.58 608.45
  Q 407.80 617.01 419.38 626.14
  Q 405.01 626.82 391.93 622.39
  Q 384.76 619.96 373.67 614.29
  Q 361.14 607.89 350.45 599.69
  Q 326.19 581.06 309.51 558.41
  Q 286.95 527.77 285.14 488.56
  C 284.09 465.68 285.77 444.77 288.19 422.60
  C 289.02 415.06 288.89 407.14 282.62 402.07
  Q 277.84 398.21 271.55 398.84
  C 263.07 399.68 259.34 405.90 256.96 413.49
  Q 253.18 425.51 251.48 432.30
  Z
  M 608.55 626.09
  Q 627.24 612.17 632.91 607.41
  C 643.95 598.15 654.77 586.52 661.56 573.53
  C 667.98 561.23 671.52 550.84 671.58 537.00
  Q 671.61 528.41 667.69 521.75
  C 662.85 511.65 651.17 507.17 641.45 513.22
  C 638.09 515.31 635.07 519.80 633.46 523.46
  Q 630.61 529.97 627.91 538.37
  C 624.12 550.13 617.61 560.51 608.69 568.90
  C 600.29 576.79 591.67 583.48 581.80 590.83
  C 571.63 598.41 562.09 606.54 553.69 615.59
  Q 541.10 629.16 533.26 646.15
  C 524.86 664.35 523.57 683.53 523.41 704.61
  Q 523.19 733.89 523.51 748.48
  Q 523.72 772.69 527.40 796.73
  L 529.15 807.44
  Q 530.94 819.44 532.78 824.76
  C 535.00 831.14 538.56 835.22 546.19 834.62
  Q 584.39 831.63 622.23 819.18
  C 631.25 816.21 639.76 812.97 638.50 801.26
  Q 637.92 795.78 637.75 790.11
  C 637.16 769.48 647.07 749.60 660.65 733.76
  Q 668.12 725.04 674.19 719.68
  C 690.93 704.92 707.95 690.38 722.81 673.80
  Q 756.15 637.14 772.67 593.25
  Q 788.70 550.68 788.33 503.00
  Q 788.10 472.92 781.99 446.48
  Q 778.95 432.46 774.36 417.99
  Q 772.59 412.42 769.52 406.88
  C 763.24 395.54 747.68 396.22 742.36 407.80
  C 740.15 412.61 740.61 418.50 741.25 423.75
  Q 742.32 432.51 743.27 441.24
  Q 745.68 463.38 744.78 487.26
  Q 744.33 499.06 742.90 507.15
  C 738.43 532.31 725.91 553.84 708.67 572.69
  Q 683.79 599.89 654.56 614.99
  Q 638.14 623.47 618.76 625.83
  Q 616.25 626.14 608.55 626.09
  Z
  M 227.44 663.00
  Q 255.61 716.03 301.79 754.44
  Q 311.46 762.49 324.26 771.93
  Q 332.36 777.91 334.84 778.84
  Q 341.11 781.17 347.74 776.87
  C 353.11 773.38 354.87 766.11 352.28 760.22
  Q 350.52 756.23 346.62 753.36
  Q 334.87 744.76 323.91 736.10
  Q 293.42 712.02 270.92 680.60
  Q 267.49 675.81 264.04 670.95
  Q 236.84 628.84 224.94 578.75
  Q 213.00 528.52 218.72 480.29
  Q 219.57 473.07 218.81 470.36
  C 216.81 463.19 209.66 460.25 202.85 462.43
  C 197.09 464.28 193.82 470.01 193.27 475.70
  Q 190.52 504.60 191.73 533.76
  Q 192.17 544.23 193.30 553.70
  Q 200.21 611.39 227.44 663.00
  Z
  M 771.73 661.75
  Q 746.47 702.91 709.11 733.38
  Q 696.17 743.94 684.44 752.45
  Q 676.18 758.44 676.69 767.18
  C 677.11 774.41 682.82 779.73 690.03 779.53
  C 696.11 779.37 701.10 775.17 705.89 771.77
  Q 730.51 754.29 751.36 733.11
  Q 778.12 705.93 796.94 672.74
  Q 797.91 671.43 800.02 667.52
  Q 829.94 612.29 836.68 551.95
  Q 840.87 514.38 836.48 475.32
  Q 836.09 471.88 834.65 468.96
  C 831.13 461.78 822.06 459.76 815.60 464.07
  C 809.39 468.22 810.42 473.30 811.19 481.00
  Q 820.99 578.11 771.73 661.75
  Z"
/>
<path fill="#262056" d="
  M 457.79 288.05
  Q 460.65 288.25 463.53 286.58
  Q 473.39 280.90 483.36 274.21
  C 497.69 264.59 510.38 252.67 520.16 238.39
  Q 527.66 227.46 531.64 215.02
  Q 535.63 202.58 534.46 189.22
  C 558.78 186.19 560.29 212.96 555.00 229.59
  C 547.33 253.72 528.38 271.69 505.14 280.40
  Q 490.59 285.84 473.88 288.06
  Q 465.46 289.17 457.10 290.26
  A 0.53 0.53 0.0 0 1 456.53 289.56
  Q 456.87 288.58 457.79 288.05
  Z"
/>
<path fill="#12a7c6" d="
  M 534.46 189.22
  Q 535.63 202.58 531.64 215.02
  Q 527.66 227.46 520.16 238.39
  C 510.38 252.67 497.69 264.59 483.36 274.21
  Q 473.39 280.90 463.53 286.58
  Q 460.65 288.25 457.79 288.05
  C 461.97 282.42 466.53 276.83 470.30 271.26
  Q 479.64 257.46 485.28 245.24
  Q 490.01 234.99 494.79 224.98
  C 501.32 211.32 512.68 198.16 526.55 191.58
  Q 530.29 189.82 534.46 189.22
  Z"
/>
<path fill="#fe46aa" d="
  M 460.04 233.06
  Q 458.74 233.48 460.03 232.11
  Q 460.40 231.73 460.39 231.20
  Q 460.38 230.66 460.86 230.38
  Q 461.34 230.09 461.35 229.53
  Q 461.37 228.81 461.98 228.30
  Q 462.19 228.12 462.07 227.86
  Q 461.98 227.68 461.85 227.77
  Q 461.51 228.03 461.59 227.61
  Q 461.61 227.48 461.63 227.34
  Q 461.69 226.97 461.33 226.86
  Q 459.31 226.24 458.39 228.00
  Q 458.18 228.39 457.74 228.43
  Q 457.04 228.50 456.60 229.10
  Q 456.28 229.51 455.80 229.32
  Q 454.33 228.72 453.07 229.52
  C 451.95 230.25 450.58 230.26 449.33 230.31
  Q 448.84 230.33 448.53 230.71
  Q 448.41 230.87 448.27 231.01
  Q 447.99 231.30 448.10 230.91
  Q 448.15 230.77 448.05 230.66
  Q 447.88 230.47 447.65 230.55
  Q 445.77 231.22 444.02 231.01
  Q 443.61 230.96 443.23 231.09
  L 441.57 231.68
  Q 440.91 231.91 441.30 231.33
  Q 441.91 230.44 442.64 229.96
  Q 443.42 229.45 442.50 229.51
  L 436.66 229.86
  A 0.53 0.51 -22.1 0 1 436.26 229.70
  Q 436.01 229.45 435.54 229.52
  Q 434.41 229.69 433.31 229.85
  Q 432.92 229.90 433.31 229.92
  Q 433.51 229.94 433.52 230.14
  A 0.16 0.16 0.0 0 1 433.32 230.30
  C 432.41 230.10 431.52 230.17 430.74 230.77
  Q 422.42 237.22 415.66 241.64
  Q 398.14 253.11 384.87 262.68
  Q 370.24 273.23 354.82 289.76
  C 346.87 298.29 339.83 308.51 334.66 318.78
  C 327.57 332.87 324.20 348.80 326.25 364.20
  Q 326.89 369.02 327.39 373.81
  Q 327.41 374.01 327.21 373.98
  Q 327.05 373.96 327.00 373.82
  Q 326.77 373.23 326.75 373.86
  Q 326.74 374.23 326.37 374.22
  Q 325.96 374.21 325.67 374.50
  Q 324.41 375.72 323.74 377.17
  A 1.90 1.84 -6.2 0 1 323.16 377.87
  Q 322.27 378.53 321.62 379.42
  Q 318.64 383.53 315.80 387.48
  Q 314.88 388.77 313.67 389.89
  Q 312.47 391.00 311.25 392.15
  Q 310.86 392.52 311.04 393.02
  Q 311.13 393.26 311.03 393.49
  Q 310.91 393.76 310.63 393.68
  Q 310.48 393.63 310.37 393.50
  A 0.20 0.19 33.1 0 0 310.02 393.57
  L 309.23 397.25
  C 302.53 384.16 289.89 375.09 275.26 374.45
  Q 261.51 373.85 251.19 380.23
  C 241.65 386.12 235.16 394.74 231.90 405.56
  Q 229.24 414.36 227.71 424.93
  C 226.72 431.83 224.36 437.82 216.47 438.89
  Q 212.61 439.41 209.42 436.94
  C 201.28 430.63 205.55 420.04 208.29 412.17
  Q 215.18 392.36 224.95 374.22
  Q 259.90 309.33 319.58 266.08
  C 358.44 237.92 402.21 216.89 448.64 205.14
  C 454.87 203.57 461.03 202.61 467.30 201.81
  A 0.95 0.95 0.0 0 1 468.37 202.80
  Q 467.55 218.98 460.04 233.06
  Z"
/>
<path fill="#fe46aa" d="
  M 675.62 220.85
  Q 678.45 222.34 681.23 224.03
  A 0.37 0.36 47.4 0 1 681.21 224.67
  Q 663.56 233.56 648.23 248.44
  Q 646.77 249.86 645.72 251.50
  A 0.45 0.45 0.0 0 1 644.91 251.37
  Q 638.36 226.82 623.24 204.18
  A 0.49 0.49 0.0 0 1 623.73 203.42
  Q 650.80 207.79 675.62 220.85
  Z"
/>
<path fill="#08b47f" d="
  M 617.93 300.21
  Q 610.11 288.92 608.15 285.83
  Q 600.54 273.86 596.61 260.25
  C 596.05 258.32 595.94 256.19 595.62 254.14
  Q 595.62 254.12 595.63 254.12
  Q 595.64 254.12 595.65 254.12
  Q 595.71 254.12 595.71 254.18
  Q 594.96 269.36 586.60 282.11
  Q 582.69 288.06 577.42 295.17
  Q 575.16 298.22 572.46 299.53
  C 566.16 284.69 566.71 266.29 571.69 251.49
  C 575.87 239.09 584.99 226.01 594.28 216.70
  Q 595.52 215.45 596.75 216.72
  C 607.91 228.25 616.62 240.88 620.99 256.50
  Q 626.91 277.66 617.93 300.21
  Z"
/>
<path fill="#e32399" d="
  M 460.04 233.06
  C 449.98 252.48 434.49 267.83 417.27 281.00
  Q 405.17 290.26 391.97 300.50
  Q 372.61 315.53 357.52 334.48
  C 339.84 356.68 330.10 383.99 328.56 412.58
  Q 327.97 423.41 329.78 434.95
  C 330.92 442.30 332.05 449.68 333.74 457.02
  Q 335.74 465.75 337.30 475.00
  C 338.52 482.25 337.26 489.36 330.40 493.22
  C 321.23 498.38 311.16 492.08 310.80 481.97
  Q 310.01 459.85 311.24 437.26
  Q 312.00 423.35 312.22 412.00
  Q 312.37 404.26 309.23 397.25
  L 310.02 393.57
  A 0.20 0.19 33.1 0 1 310.37 393.50
  Q 310.48 393.63 310.63 393.68
  Q 310.91 393.76 311.03 393.49
  Q 311.13 393.26 311.04 393.02
  Q 310.86 392.52 311.25 392.15
  Q 312.47 391.00 313.67 389.89
  Q 314.88 388.77 315.80 387.48
  Q 318.64 383.53 321.62 379.42
  Q 322.27 378.53 323.16 377.87
  A 1.90 1.84 -6.2 0 0 323.74 377.17
  Q 324.41 375.72 325.67 374.50
  Q 325.96 374.21 326.37 374.22
  Q 326.74 374.23 326.75 373.86
  Q 326.77 373.23 327.00 373.82
  Q 327.05 373.96 327.21 373.98
  Q 327.41 374.01 327.39 373.81
  Q 326.89 369.02 326.25 364.20
  C 324.20 348.80 327.57 332.87 334.66 318.78
  C 339.83 308.51 346.87 298.29 354.82 289.76
  Q 370.24 273.23 384.87 262.68
  Q 398.14 253.11 415.66 241.64
  Q 422.42 237.22 430.74 230.77
  C 431.52 230.17 432.41 230.10 433.32 230.30
  A 0.16 0.16 0.0 0 0 433.52 230.14
  Q 433.51 229.94 433.31 229.92
  Q 432.92 229.90 433.31 229.85
  Q 434.41 229.69 435.54 229.52
  Q 436.01 229.45 436.26 229.70
  A 0.53 0.51 -22.1 0 0 436.66 229.86
  L 442.50 229.51
  Q 443.42 229.45 442.64 229.96
  Q 441.91 230.44 441.30 231.33
  Q 440.91 231.91 441.57 231.68
  L 443.23 231.09
  Q 443.61 230.96 444.02 231.01
  Q 445.77 231.22 447.65 230.55
  Q 447.88 230.47 448.05 230.66
  Q 448.15 230.77 448.10 230.91
  Q 447.99 231.30 448.27 231.01
  Q 448.41 230.87 448.53 230.71
  Q 448.84 230.33 449.33 230.31
  C 450.58 230.26 451.95 230.25 453.07 229.52
  Q 454.33 228.72 455.80 229.32
  Q 456.28 229.51 456.60 229.10
  Q 457.04 228.50 457.74 228.43
  Q 458.18 228.39 458.39 228.00
  Q 459.31 226.24 461.33 226.86
  Q 461.69 226.97 461.63 227.34
  Q 461.61 227.48 461.59 227.61
  Q 461.51 228.03 461.85 227.77
  Q 461.98 227.68 462.07 227.86
  Q 462.19 228.12 461.98 228.30
  Q 461.37 228.81 461.35 229.53
  Q 461.34 230.09 460.86 230.38
  Q 460.38 230.66 460.39 231.20
  Q 460.40 231.73 460.03 232.11
  Q 458.74 233.48 460.04 233.06
  Z"
/>
<path fill="#08b47f" d="
  M 740.64 309.32
  Q 740.67 308.86 740.19 308.58
  Q 739.73 308.31 739.26 308.53
  Q 738.55 308.85 737.76 308.90
  Q 727.68 309.53 718.11 307.31
  C 713.83 306.32 709.64 304.58 705.27 303.20
  Q 699.49 301.37 693.37 296.25
  Q 706.67 283.49 720.55 270.52
  Q 725.30 266.07 730.50 262.21
  Q 730.51 262.20 730.51 262.19
  L 730.37 261.98
  Q 730.23 261.76 730.01 261.88
  C 726.12 264.04 721.88 265.93 718.29 268.07
  Q 705.38 275.78 699.83 279.83
  Q 692.20 285.39 678.92 297.42
  Q 676.70 297.04 674.20 298.13
  Q 673.79 298.31 673.33 298.29
  Q 669.49 298.15 666.08 299.42
  Q 649.97 305.42 639.46 313.25
  Q 636.09 315.75 632.26 320.20
  Q 631.41 321.18 629.75 320.86
  Q 635.88 303.87 648.40 285.65
  Q 664.10 262.81 688.45 249.17
  C 710.37 236.90 735.69 230.23 760.94 227.94
  Q 765.24 227.55 769.52 227.00
  A 0.61 0.61 0.0 0 1 770.20 227.69
  Q 766.78 251.80 758.52 274.75
  Q 752.35 291.90 740.64 309.32
  Z"
/>
<path fill="#0e2d4b" d="
  M 617.93 300.21
  Q 613.82 309.48 612.42 312.17
  Q 608.97 318.78 598.65 336.93
  C 598.20 337.72 597.96 338.72 597.58 339.56
  A 0.45 0.45 0.0 0 1 596.76 339.57
  C 592.28 330.63 585.86 322.81 580.14 314.39
  Q 575.27 307.21 572.46 299.53
  Q 575.16 298.22 577.42 295.17
  Q 582.69 288.06 586.60 282.11
  Q 594.96 269.36 595.71 254.18
  Q 595.71 254.12 595.65 254.12
  Q 595.64 254.12 595.63 254.12
  Q 595.62 254.12 595.62 254.14
  C 595.94 256.19 596.05 258.32 596.61 260.25
  Q 600.54 273.86 608.15 285.83
  Q 610.11 288.92 617.93 300.21
  Z"
/>
<path fill="#025d5d" d="
  M 693.37 296.25
  Q 699.49 301.37 705.27 303.20
  C 709.64 304.58 713.83 306.32 718.11 307.31
  Q 727.68 309.53 737.76 308.90
  Q 738.55 308.85 739.26 308.53
  Q 739.73 308.31 740.19 308.58
  Q 740.67 308.86 740.64 309.32
  Q 726.41 329.41 706.46 342.86
  Q 701.56 341.15 697.63 338.49
  Q 696.48 337.71 695.21 337.41
  Q 693.96 337.12 692.96 336.41
  C 688.87 333.46 684.85 329.96 681.25 326.07
  Q 676.93 321.40 672.46 316.65
  L 693.37 296.25
  Z"
/>
<path fill="#034250" d="
  M 678.92 297.42
  Q 662.10 312.32 650.53 326.53
  Q 636.72 343.47 623.88 366.83
  C 621.50 371.15 618.92 374.85 616.31 378.79
  A 1.86 1.84 -82.2 0 1 615.37 379.51
  Q 614.47 379.80 614.51 378.85
  C 615.30 358.72 621.47 339.13 629.75 320.86
  Q 631.41 321.18 632.26 320.20
  Q 636.09 315.75 639.46 313.25
  Q 649.97 305.42 666.08 299.42
  Q 669.49 298.15 673.33 298.29
  Q 673.79 298.31 674.20 298.13
  Q 676.70 297.04 678.92 297.42
  Z"
/>
<path fill="#08b47f" d="
  M 416.09 385.02
  Q 416.21 385.53 416.06 385.84
  Q 415.75 386.47 415.24 385.99
  Q 414.92 385.68 414.49 385.62
  Q 414.03 385.57 413.63 385.81
  Q 411.83 386.93 409.72 386.55
  A 0.09 0.09 0.0 0 0 409.61 386.64
  Q 409.59 387.22 409.02 387.05
  Q 408.64 386.94 408.32 386.74
  Q 403.59 383.73 397.85 384.66
  Q 397.29 384.75 396.77 384.52
  Q 394.17 383.39 391.75 382.72
  Q 390.31 382.32 388.72 382.87
  Q 388.49 382.95 388.31 382.79
  Q 388.28 382.76 388.26 382.71
  Q 387.99 382.00 387.43 382.57
  Q 387.24 382.76 387.12 382.53
  Q 386.76 381.86 386.59 382.62
  Q 386.44 383.35 385.83 384.07
  Q 384.42 372.93 386.33 361.92
  Q 386.37 361.69 386.14 361.64
  L 386.13 361.63
  Q 386.07 361.62 386.06 361.68
  Q 385.10 364.63 384.44 367.49
  C 383.81 370.24 379.48 370.55 377.19 370.82
  A 1.72 1.71 89.4 0 0 375.68 372.37
  C 374.44 385.22 375.60 398.06 380.00 410.75
  Q 388.57 435.46 407.59 453.90
  Q 411.76 457.95 422.43 466.86
  Q 417.98 469.95 415.73 470.23
  Q 413.42 470.52 410.94 471.33
  Q 410.46 471.48 410.61 471.96
  Q 410.75 472.40 410.72 472.86
  Q 410.69 473.36 410.21 473.52
  Q 408.52 474.06 406.98 474.61
  Q 404.85 475.36 404.32 473.54
  A 0.86 0.85 70.4 0 0 403.17 472.99
  L 398.03 475.14
  Q 397.58 475.33 397.08 475.31
  L 395.48 475.25
  Q 394.66 475.22 395.14 475.88
  Q 396.39 477.57 395.51 479.29
  Q 384.48 469.88 375.13 456.36
  Q 356.93 430.04 358.82 398.07
  Q 359.84 380.94 366.66 365.88
  C 380.62 335.07 407.16 312.29 438.64 300.08
  Q 441.12 299.12 438.97 300.68
  Q 437.82 301.53 436.85 302.55
  Q 416.37 324.23 413.02 353.25
  Q 411.18 369.19 416.09 385.02
  Z"
/>
<path fill="#0e2d4b" d="
  M 672.46 316.65
  Q 676.93 321.40 681.25 326.07
  C 684.85 329.96 688.87 333.46 692.96 336.41
  Q 693.96 337.12 695.21 337.41
  Q 696.48 337.71 697.63 338.49
  Q 701.56 341.15 706.46 342.86
  Q 688.92 353.39 669.74 359.29
  Q 652.94 364.45 635.63 369.23
  C 633.08 369.93 630.64 370.91 628.09 371.67
  Q 627.03 371.98 627.63 371.05
  Q 631.54 365.01 637.68 356.94
  C 648.37 342.88 659.73 328.93 672.46 316.65
  Z"
/>
<path fill="#fe46aa" d="
  M 717.76 424.00
  Q 716.36 429.85 716.75 436.25
  Q 716.78 436.67 716.62 437.06
  Q 716.16 438.15 716.40 439.46
  Q 716.48 439.88 716.16 440.17
  Q 715.39 440.87 714.43 441.09
  Q 713.87 441.21 713.78 441.78
  Q 713.65 442.67 712.81 442.93
  Q 712.15 443.14 711.88 443.78
  L 710.32 447.37
  Q 710.12 447.84 709.62 447.90
  Q 708.30 448.06 708.09 449.40
  A 1.01 1.01 0.0 0 1 707.32 450.22
  Q 705.47 450.64 704.49 452.23
  Q 703.97 453.07 704.07 452.09
  Q 704.10 451.84 703.73 451.90
  Q 703.13 452.00 702.98 452.59
  Q 702.79 453.36 701.97 453.24
  A 0.61 0.60 -86.2 0 1 701.45 452.64
  Q 701.50 447.03 699.39 442.30
  Q 705.42 414.08 700.91 385.33
  C 700.35 381.76 699.38 378.38 698.56 374.89
  Q 698.42 374.27 699.01 374.03
  C 727.04 362.95 750.81 343.64 765.99 317.53
  A 0.72 0.72 0.0 0 1 767.16 317.43
  Q 806.45 363.95 824.75 420.16
  Q 826.36 425.10 825.40 429.84
  C 824.07 436.39 816.21 441.35 809.89 438.08
  Q 804.84 435.48 803.34 430.13
  C 801.77 424.53 800.54 415.51 798.50 408.15
  C 793.40 389.71 778.72 375.38 759.24 374.35
  Q 741.01 373.39 728.13 385.50
  C 721.64 391.60 717.80 399.57 717.53 408.26
  Q 717.34 414.21 717.76 424.00
  Z"
/>
<path fill="#fe46aa" d="
  M 564.59 329.18
  Q 567.99 333.26 572.00 336.75
  Q 573.33 337.91 577.39 344.60
  Q 579.92 348.76 580.67 352.10
  Q 581.60 356.26 582.59 360.36
  Q 582.72 360.93 582.35 361.39
  Q 582.09 361.69 581.97 362.08
  Q 581.67 363.04 580.71 363.01
  Q 580.21 362.99 579.79 363.27
  Q 578.26 364.30 576.72 364.91
  Q 576.04 365.17 575.98 365.87
  Q 575.94 366.39 575.46 366.57
  Q 573.03 367.48 570.38 368.12
  Q 569.32 368.38 567.87 369.26
  Q 567.46 369.51 566.99 369.62
  L 564.43 370.23
  Q 563.86 370.37 563.75 370.95
  Q 562.28 379.13 557.95 385.74
  C 555.68 389.19 552.50 392.44 549.58 395.30
  Q 544.91 399.87 538.69 402.77
  Q 518.45 412.20 497.28 406.61
  Q 475.08 400.74 463.12 380.47
  Q 462.87 380.04 462.39 380.15
  Q 458.42 381.05 455.39 383.44
  Q 454.97 383.77 454.44 383.84
  Q 452.69 384.08 451.06 384.93
  Q 450.59 385.17 450.07 385.09
  Q 448.90 384.92 448.22 385.78
  Q 448.06 385.98 448.11 385.73
  Q 448.12 385.68 448.10 385.63
  Q 447.99 385.38 447.76 385.51
  C 446.27 386.31 444.62 385.83 443.83 384.34
  Q 442.60 382.00 441.57 379.91
  Q 441.16 379.09 441.10 380.01
  Q 441.00 381.64 441.97 382.92
  Q 442.26 383.31 442.07 383.76
  Q 441.71 384.57 442.02 385.41
  Q 442.20 385.91 441.89 386.36
  L 441.19 387.33
  Q 432.93 363.64 443.96 343.83
  Q 449.04 334.70 456.70 329.45
  Q 472.96 318.29 492.62 322.11
  Q 503.89 324.31 512.12 331.98
  A 1.23 1.22 -44.8 0 0 513.79 331.98
  Q 525.58 320.95 541.74 321.43
  Q 554.70 321.81 564.59 329.18
  Z
  M 486.17 352.13
  A 10.93 10.93 0.0 0 0 475.24 341.20
  A 10.93 10.93 0.0 0 0 464.31 352.13
  A 10.93 10.93 0.0 0 0 475.24 363.06
  A 10.93 10.93 0.0 0 0 486.17 352.13
  Z"
/>
<path fill="#e32399" d="
  M 564.59 329.18
  C 589.12 346.89 590.55 380.28 573.06 403.16
  Q 568.43 409.22 562.90 414.18
  Q 551.97 423.96 539.54 434.57
  Q 526.04 446.09 515.08 459.59
  A 0.96 0.95 43.2 0 1 513.64 459.63
  C 506.74 452.17 499.83 445.26 491.92 438.72
  Q 481.25 429.90 469.03 420.33
  Q 461.56 414.47 453.92 406.59
  Q 445.73 398.15 441.19 387.33
  L 441.89 386.36
  Q 442.20 385.91 442.02 385.41
  Q 441.71 384.57 442.07 383.76
  Q 442.26 383.31 441.97 382.92
  Q 441.00 381.64 441.10 380.01
  Q 441.16 379.09 441.57 379.91
  Q 442.60 382.00 443.83 384.34
  C 444.62 385.83 446.27 386.31 447.76 385.51
  Q 447.99 385.38 448.10 385.63
  Q 448.12 385.68 448.11 385.73
  Q 448.06 385.98 448.22 385.78
  Q 448.90 384.92 450.07 385.09
  Q 450.59 385.17 451.06 384.93
  Q 452.69 384.08 454.44 383.84
  Q 454.97 383.77 455.39 383.44
  Q 458.42 381.05 462.39 380.15
  Q 462.87 380.04 463.12 380.47
  Q 475.08 400.74 497.28 406.61
  Q 518.45 412.20 538.69 402.77
  Q 544.91 399.87 549.58 395.30
  C 552.50 392.44 555.68 389.19 557.95 385.74
  Q 562.28 379.13 563.75 370.95
  Q 563.86 370.37 564.43 370.23
  L 566.99 369.62
  Q 567.46 369.51 567.87 369.26
  Q 569.32 368.38 570.38 368.12
  Q 573.03 367.48 575.46 366.57
  Q 575.94 366.39 575.98 365.87
  Q 576.04 365.17 576.72 364.91
  Q 578.26 364.30 579.79 363.27
  Q 580.21 362.99 580.71 363.01
  Q 581.67 363.04 581.97 362.08
  Q 582.09 361.69 582.35 361.39
  Q 582.72 360.93 582.59 360.36
  Q 581.60 356.26 580.67 352.10
  Q 579.92 348.76 577.39 344.60
  Q 573.33 337.91 572.00 336.75
  Q 567.99 333.26 564.59 329.18
  Z"
/>
<circle fill="#fefcef" cx="475.24" cy="352.13" r="10.93"/>
<path fill="#fefcef" d="
  M 385.83 384.07
  Q 387.26 399.89 393.51 414.84
  Q 399.72 428.82 409.48 440.78
  Q 419.31 452.82 431.48 462.49
  Q 441.05 470.09 450.86 477.38
  Q 457.82 482.54 464.18 489.19
  Q 441.41 480.77 422.43 466.86
  Q 411.76 457.95 407.59 453.90
  Q 388.57 435.46 380.00 410.75
  C 375.60 398.06 374.44 385.22 375.68 372.37
  A 1.72 1.71 89.4 0 1 377.19 370.82
  C 379.48 370.55 383.81 370.24 384.44 367.49
  Q 385.10 364.63 386.06 361.68
  Q 386.07 361.62 386.13 361.63
  L 386.14 361.64
  Q 386.37 361.69 386.33 361.92
  Q 384.42 372.93 385.83 384.07
  Z"
/>
<path fill="#12a7c6" d="
  M 645.63 469.78
  Q 645.57 463.58 645.32 461.75
  Q 643.45 447.62 643.04 441.51
  Q 641.81 423.17 651.14 407.77
  Q 652.18 406.04 650.83 407.54
  C 649.22 409.33 647.73 411.16 645.99 412.79
  Q 634.28 423.74 622.81 431.29
  Q 598.51 447.28 569.99 455.64
  Q 551.65 461.02 543.33 463.07
  Q 552.80 450.78 565.77 438.51
  Q 578.18 426.76 584.03 421.86
  Q 608.58 401.30 641.22 388.82
  Q 658.13 382.35 675.61 377.91
  Q 676.53 377.68 676.59 378.62
  Q 677.21 387.96 676.73 397.61
  C 675.71 418.12 669.23 437.33 657.84 454.32
  C 653.71 460.48 649.96 465.45 645.63 469.78
  Z"
/>
<path fill="#0ea1a4" d="
  M 416.09 385.02
  Q 422.63 404.36 437.58 419.92
  Q 448.74 431.55 456.27 437.97
  Q 473.10 452.31 489.10 467.37
  L 488.97 467.85
  A 1.56 1.55 -73.5 0 1 487.01 468.92
  Q 480.28 466.84 474.43 464.51
  Q 460.61 459.02 444.41 451.12
  C 435.94 447.00 427.79 441.78 420.14 436.48
  Q 407.07 427.43 394.76 414.01
  Q 394.44 413.66 393.96 413.96
  A 0.71 0.66 -10.1 0 0 393.68 414.33
  L 393.51 414.84
  Q 387.26 399.89 385.83 384.07
  Q 386.44 383.35 386.59 382.62
  Q 386.76 381.86 387.12 382.53
  Q 387.24 382.76 387.43 382.57
  Q 387.99 382.00 388.26 382.71
  Q 388.28 382.76 388.31 382.79
  Q 388.49 382.95 388.72 382.87
  Q 390.31 382.32 391.75 382.72
  Q 394.17 383.39 396.77 384.52
  Q 397.29 384.75 397.85 384.66
  Q 403.59 383.73 408.32 386.74
  Q 408.64 386.94 409.02 387.05
  Q 409.59 387.22 409.61 386.64
  A 0.09 0.09 0.0 0 1 409.72 386.55
  Q 411.83 386.93 413.63 385.81
  Q 414.03 385.57 414.49 385.62
  Q 414.92 385.68 415.24 385.99
  Q 415.75 386.47 416.06 385.84
  Q 416.21 385.53 416.09 385.02
  Z"
/>
<path fill="#592ba3" d="
  M 419.38 626.14
  Q 426.81 626.60 434.70 627.85
  C 436.73 628.17 438.37 629.26 440.28 629.54
  Q 441.37 629.70 440.54 628.97
  C 438.00 626.72 435.01 624.98 432.42 622.77
  Q 429.35 620.15 426.02 617.40
  C 404.22 599.46 384.58 577.41 373.36 551.22
  Q 373.14 550.71 372.59 550.82
  Q 372.03 550.93 371.62 551.24
  A 1.19 1.17 32.8 0 1 370.61 551.45
  Q 366.60 550.47 365.26 550.86
  Q 362.95 551.53 360.18 551.84
  Q 357.34 539.48 359.94 527.98
  C 363.53 512.12 381.31 503.54 393.14 517.50
  Q 396.35 521.28 398.36 527.22
  Q 401.22 535.64 403.68 542.88
  Q 406.05 549.84 412.66 558.86
  Q 420.42 569.46 432.81 579.03
  Q 446.15 589.34 459.33 599.67
  Q 472.11 609.70 483.09 623.60
  Q 502.00 647.52 505.56 679.57
  Q 506.54 688.36 506.70 697.26
  Q 507.23 726.21 506.60 755.25
  Q 506.32 767.78 504.90 780.19
  L 496.26 778.96
  A 1.86 1.85 -2.3 0 1 494.71 777.53
  Q 492.76 768.57 489.62 760.53
  Q 486.80 753.31 482.44 746.49
  C 475.54 735.72 466.75 725.97 456.57 717.99
  Q 449.10 712.13 442.43 707.59
  C 421.90 693.58 400.77 682.09 379.79 670.10
  Q 362.45 660.20 344.08 648.17
  Q 332.03 640.27 314.83 624.96
  Q 285.16 593.64 268.67 554.76
  Q 256.94 527.11 252.64 494.31
  Q 252.24 491.26 251.60 484.12
  Q 251.17 479.33 250.98 473.90
  C 250.80 469.15 250.36 464.42 250.39 459.69
  Q 250.45 450.96 250.80 442.24
  Q 250.85 440.99 251.27 437.29
  Q 251.55 434.79 251.48 432.30
  Q 253.18 425.51 256.96 413.49
  C 259.34 405.90 263.07 399.68 271.55 398.84
  Q 277.84 398.21 282.62 402.07
  C 288.89 407.14 289.02 415.06 288.19 422.60
  C 285.77 444.77 284.09 465.68 285.14 488.56
  Q 286.95 527.77 309.51 558.41
  Q 326.19 581.06 350.45 599.69
  Q 361.14 607.89 373.67 614.29
  Q 384.76 619.96 391.93 622.39
  Q 405.01 626.82 419.38 626.14
  Z"
/>
<path fill="#08b47f" d="
  M 781.99 446.48
  Q 780.99 451.45 780.87 460.00
  Q 780.78 466.52 778.63 487.50
  Q 778.10 492.70 776.14 504.77
  C 775.15 510.83 773.53 516.63 772.20 522.56
  Q 770.72 529.16 768.78 535.79
  Q 762.01 558.85 747.03 583.78
  Q 732.48 607.99 714.98 626.00
  Q 704.06 634.95 700.08 637.82
  Q 681.24 651.35 662.34 662.63
  Q 643.62 673.79 623.17 684.80
  C 614.97 689.22 606.72 694.06 598.73 699.16
  C 574.66 714.53 551.88 733.54 540.66 760.24
  Q 538.26 758.78 536.77 756.54
  Q 536.50 756.13 536.05 755.90
  Q 535.25 755.48 534.82 754.67
  A 1.44 1.39 -88.9 0 0 534.32 754.13
  L 526.54 749.36
  Q 526.25 749.19 525.92 749.20
  Q 524.87 749.23 524.64 748.03
  Q 524.57 747.68 524.25 747.81
  Q 523.96 747.93 523.51 748.48
  Q 523.19 733.89 523.41 704.61
  C 523.57 683.53 524.86 664.35 533.26 646.15
  Q 541.10 629.16 553.69 615.59
  C 562.09 606.54 571.63 598.41 581.80 590.83
  C 591.67 583.48 600.29 576.79 608.69 568.90
  C 617.61 560.51 624.12 550.13 627.91 538.37
  Q 630.61 529.97 633.46 523.46
  C 635.07 519.80 638.09 515.31 641.45 513.22
  C 651.17 507.17 662.85 511.65 667.69 521.75
  Q 667.36 521.84 666.90 521.46
  Q 666.26 520.92 666.37 521.75
  Q 666.47 522.53 665.98 523.27
  Q 665.82 523.51 665.55 523.41
  Q 665.38 523.35 665.37 523.22
  Q 665.25 522.12 664.93 523.18
  Q 664.07 526.03 663.58 528.77
  Q 662.85 532.84 661.69 536.50
  Q 659.51 543.37 657.14 550.45
  Q 656.13 553.48 654.64 556.50
  C 645.33 575.47 631.78 592.62 616.24 606.73
  Q 608.57 613.69 600.51 620.97
  C 598.35 622.91 596.18 624.52 594.00 626.25
  Q 593.25 626.84 594.20 626.88
  Q 595.08 626.92 595.91 626.49
  C 597.89 625.46 600.72 625.47 602.84 625.83
  Q 604.19 626.06 605.67 625.94
  Q 607.25 625.81 608.55 626.09
  Q 616.25 626.14 618.76 625.83
  Q 638.14 623.47 654.56 614.99
  Q 683.79 599.89 708.67 572.69
  C 725.91 553.84 738.43 532.31 742.90 507.15
  Q 744.33 499.06 744.78 487.26
  Q 745.68 463.38 743.27 441.24
  Q 742.32 432.51 741.25 423.75
  C 740.61 418.50 740.15 412.61 742.36 407.80
  C 747.68 396.22 763.24 395.54 769.52 406.88
  Q 772.59 412.42 774.36 417.99
  Q 778.95 432.46 781.99 446.48
  Z"
/>
<path fill="#262056" d="
  M 645.63 469.78
  Q 643.55 472.19 642.45 473.21
  C 628.64 486.23 612.55 496.66 594.97 505.23
  Q 579.46 512.79 567.41 518.89
  Q 545.38 530.05 528.20 545.50
  Q 505.93 515.94 474.44 495.61
  Q 469.10 492.16 464.18 489.19
  Q 457.82 482.54 450.86 477.38
  Q 441.05 470.09 431.48 462.49
  Q 419.31 452.82 409.48 440.78
  Q 399.72 428.82 393.51 414.84
  L 393.68 414.33
  A 0.71 0.66 -10.1 0 1 393.96 413.96
  Q 394.44 413.66 394.76 414.01
  Q 407.07 427.43 420.14 436.48
  C 427.79 441.78 435.94 447.00 444.41 451.12
  Q 460.61 459.02 474.43 464.51
  Q 480.28 466.84 487.01 468.92
  A 1.56 1.55 -73.5 0 0 488.97 467.85
  L 489.10 467.37
  Q 490.71 469.01 495.45 472.81
  Q 505.71 481.02 514.29 490.86
  Q 514.54 491.15 514.77 490.84
  C 520.50 482.92 527.11 475.93 534.84 469.74
  Q 539.17 466.28 543.33 463.07
  Q 551.65 461.02 569.99 455.64
  Q 598.51 447.28 622.81 431.29
  Q 634.28 423.74 645.99 412.79
  C 647.73 411.16 649.22 409.33 650.83 407.54
  Q 652.18 406.04 651.14 407.77
  Q 641.81 423.17 643.04 441.51
  Q 643.45 447.62 645.32 461.75
  Q 645.57 463.58 645.63 469.78
  Z
  M 625.08 443.61
  C 622.70 441.95 620.77 442.03 618.82 443.88
  Q 607.36 454.73 593.85 464.61
  Q 585.07 471.03 578.56 476.58
  Q 577.31 477.65 576.42 478.95
  Q 574.73 481.44 577.62 480.64
  C 594.81 475.90 611.07 464.41 624.12 451.11
  C 625.99 449.20 628.23 445.80 625.08 443.61
  Z"
/>
<path fill="#e32399" d="
  M 717.76 424.00
  Q 719.68 452.28 719.54 477.75
  C 719.50 485.06 717.65 491.47 710.09 494.29
  C 705.74 495.91 700.95 495.22 697.49 492.05
  C 690.66 485.79 692.32 475.04 694.08 466.75
  Q 696.63 454.72 699.39 442.30
  Q 701.50 447.03 701.45 452.64
  A 0.61 0.60 -86.2 0 0 701.97 453.24
  Q 702.79 453.36 702.98 452.59
  Q 703.13 452.00 703.73 451.90
  Q 704.10 451.84 704.07 452.09
  Q 703.97 453.07 704.49 452.23
  Q 705.47 450.64 707.32 450.22
  A 1.01 1.01 0.0 0 0 708.09 449.40
  Q 708.30 448.06 709.62 447.90
  Q 710.12 447.84 710.32 447.37
  L 711.88 443.78
  Q 712.15 443.14 712.81 442.93
  Q 713.65 442.67 713.78 441.78
  Q 713.87 441.21 714.43 441.09
  Q 715.39 440.87 716.16 440.17
  Q 716.48 439.88 716.40 439.46
  Q 716.16 438.15 716.62 437.06
  Q 716.78 436.67 716.75 436.25
  Q 716.36 429.85 717.76 424.00
  Z"
/>
<path fill="#191e49" d="
  M 251.48 432.30
  Q 251.55 434.79 251.27 437.29
  Q 250.85 440.99 250.80 442.24
  Q 250.45 450.96 250.39 459.69
  C 250.36 464.42 250.80 469.15 250.98 473.90
  Q 251.17 479.33 251.60 484.12
  Q 252.24 491.26 252.64 494.31
  Q 256.94 527.11 268.67 554.76
  Q 285.16 593.64 314.83 624.96
  L 314.19 627.67
  Q 314.07 628.16 314.38 628.57
  Q 321.94 638.63 330.41 649.69
  C 335.85 656.79 342.14 663.54 348.38 669.85
  C 359.98 681.61 370.89 692.35 382.65 703.21
  Q 391.57 711.45 401.50 720.99
  Q 417.75 736.60 426.55 756.91
  Q 429.54 763.80 431.24 770.64
  Q 432.03 773.82 432.09 776.92
  Q 432.15 780.04 432.52 783.04
  A 3.30 3.29 88.5 0 0 435.56 785.93
  Q 437.62 786.07 439.85 785.71
  Q 442.09 785.34 444.20 785.29
  Q 447.25 785.21 450.33 785.66
  Q 452.41 785.97 454.18 785.51
  Q 454.53 785.42 454.87 785.52
  Q 457.45 786.25 460.18 785.45
  Q 462.46 784.79 465.08 785.60
  Q 465.54 785.74 465.92 785.44
  Q 466.53 784.96 467.01 785.59
  Q 467.39 786.10 467.90 785.73
  Q 469.59 784.51 471.73 785.05
  Q 472.18 785.16 472.63 785.03
  Q 475.33 784.25 478.13 785.07
  A 1.53 1.51 -12.8 0 1 478.87 785.53
  Q 479.61 786.36 480.59 786.10
  Q 481.02 785.99 481.40 786.21
  L 483.40 787.37
  Q 483.82 787.61 484.21 787.32
  Q 484.51 787.09 484.68 787.46
  Q 484.82 787.77 485.13 787.92
  Q 485.81 788.27 486.06 788.98
  C 486.48 790.18 487.82 791.03 488.92 791.56
  Q 489.27 791.72 489.27 792.11
  L 489.27 792.58
  A 1.33 1.31 -63.0 0 0 489.51 793.34
  Q 490.61 794.91 490.82 796.88
  A 0.81 0.80 -2.1 0 0 491.59 797.59
  L 492.69 797.64
  Q 493.23 797.67 493.57 798.08
  L 494.50 799.19
  Q 494.78 799.53 495.20 799.68
  Q 497.12 800.36 498.82 801.96
  Q 499.46 802.56 499.89 801.79
  L 500.52 800.65
  A 2.46 2.25 -10.5 0 1 500.92 800.12
  L 502.34 798.76
  Q 500.48 813.05 497.17 824.45
  Q 493.93 835.61 481.53 834.65
  Q 439.28 831.40 399.92 816.41
  Q 392.62 813.63 391.16 806.38
  C 390.20 801.61 391.58 796.59 391.76 791.72
  Q 392.35 775.62 387.07 762.59
  C 380.38 746.08 369.40 732.14 356.28 720.29
  Q 344.69 709.83 332.27 698.95
  C 281.90 654.80 247.21 595.16 242.64 527.82
  C 240.44 495.32 242.68 463.62 251.48 432.30
  Z"
/>
<path fill="#fefcef" d="
  M 618.82 443.88
  C 620.77 442.03 622.70 441.95 625.08 443.61
  C 628.23 445.80 625.99 449.20 624.12 451.11
  C 611.07 464.41 594.81 475.90 577.62 480.64
  Q 574.73 481.44 576.42 478.95
  Q 577.31 477.65 578.56 476.58
  Q 585.07 471.03 593.85 464.61
  Q 607.36 454.73 618.82 443.88
  Z"
/>
<path fill="#025d5d" d="
  M 781.99 446.48
  Q 788.10 472.92 788.33 503.00
  Q 788.70 550.68 772.67 593.25
  Q 756.15 637.14 722.81 673.80
  Q 722.82 673.29 722.27 673.45
  Q 721.87 673.57 721.92 673.96
  Q 721.94 674.14 721.76 674.10
  Q 720.85 673.88 720.44 674.70
  Q 720.27 675.02 720.06 674.73
  Q 719.66 674.17 719.02 674.53
  Q 718.01 675.10 716.93 675.47
  Q 716.57 675.59 716.61 675.96
  Q 716.62 676.12 716.77 676.25
  Q 717.04 676.51 717.27 676.22
  Q 717.37 676.10 717.52 676.10
  Q 717.63 676.10 717.71 676.17
  Q 717.80 676.26 717.87 676.41
  Q 717.97 676.62 717.73 676.63
  Q 716.59 676.71 716.15 675.73
  Q 715.96 675.30 715.52 675.15
  Q 712.55 674.13 710.75 673.75
  Q 710.25 673.65 709.81 673.94
  A 0.74 0.73 -38.6 0 1 708.88 673.84
  Q 708.56 673.51 708.14 673.67
  Q 707.75 673.82 707.33 673.75
  Q 702.54 672.94 697.99 672.99
  Q 697.17 673.00 696.59 673.55
  Q 696.49 673.65 696.39 673.56
  Q 696.29 673.48 696.32 673.32
  Q 696.34 673.23 696.25 673.23
  Q 688.67 673.37 683.99 675.34
  Q 682.09 676.14 680.45 674.26
  Q 680.38 674.18 680.43 674.08
  Q 680.48 673.96 680.60 673.88
  Q 680.69 673.81 680.64 673.71
  Q 680.40 673.26 680.01 673.15
  Q 679.51 673.00 679.27 673.46
  Q 677.92 676.03 675.22 677.10
  Q 692.16 660.02 706.29 640.66
  C 708.77 637.26 711.64 632.52 714.57 628.59
  Q 714.87 628.20 714.89 627.70
  L 714.98 626.00
  Q 732.48 607.99 747.03 583.78
  Q 762.01 558.85 768.78 535.79
  Q 770.72 529.16 772.20 522.56
  C 773.53 516.63 775.15 510.83 776.14 504.77
  Q 778.10 492.70 778.63 487.50
  Q 780.78 466.52 780.87 460.00
  Q 780.99 451.45 781.99 446.48
  Z"
/>
<path fill="#08b47f" d="
  M 264.04 670.95
  Q 262.92 671.62 262.35 671.21
  A 0.11 0.10 -30.5 0 1 262.40 671.02
  Q 262.55 671.00 262.66 670.91
  Q 263.14 670.50 262.57 670.26
  Q 260.45 669.36 258.83 670.42
  Q 258.51 670.63 258.15 670.46
  Q 256.08 669.44 254.37 668.06
  Q 253.02 666.97 251.13 666.58
  Q 248.72 666.08 246.54 665.33
  Q 245.63 665.01 245.45 665.98
  Q 245.39 666.27 245.63 666.45
  Q 246.44 667.07 246.45 668.15
  Q 246.46 668.81 245.81 668.67
  Q 242.23 667.86 239.63 666.59
  Q 234.67 664.16 230.36 662.65
  Q 229.80 662.45 230.13 662.95
  Q 230.24 663.12 230.01 663.26
  Q 229.65 663.47 229.28 663.30
  Q 228.16 662.79 227.44 663.00
  Q 200.21 611.39 193.30 553.70
  Q 192.17 544.23 191.73 533.76
  Q 190.52 504.60 193.27 475.70
  C 193.82 470.01 197.09 464.28 202.85 462.43
  C 209.66 460.25 216.81 463.19 218.81 470.36
  Q 219.57 473.07 218.72 480.29
  Q 213.00 528.52 224.94 578.75
  Q 236.84 628.84 264.04 670.95
  Z"
/>
<path fill="#592ba3" d="
  M 796.94 672.74
  Q 796.61 670.62 796.98 668.38
  Q 797.08 667.78 796.72 668.27
  L 794.23 671.70
  Q 793.96 672.08 793.50 672.07
  Q 793.08 672.06 792.81 672.39
  Q 791.75 673.75 790.86 675.07
  A 0.31 0.30 26.0 0 1 790.50 675.19
  Q 790.35 675.15 790.26 675.00
  Q 790.08 674.69 790.08 675.05
  Q 790.07 675.24 789.89 675.26
  A 0.22 0.21 -4.6 0 1 789.64 675.05
  Q 789.63 674.30 789.85 673.66
  A 0.37 0.36 76.1 0 0 789.24 673.29
  Q 788.64 673.93 787.77 674.27
  Q 787.22 674.48 786.86 674.01
  Q 785.63 672.39 783.36 672.21
  Q 782.94 672.18 782.71 671.83
  Q 782.06 670.83 780.86 670.57
  A 1.59 1.58 -22.0 0 1 780.41 670.38
  L 778.12 668.95
  Q 777.74 668.70 777.47 668.33
  Q 776.77 667.35 775.58 666.75
  Q 775.20 666.55 774.97 666.15
  Q 774.90 666.03 774.89 665.90
  Q 774.87 665.25 774.23 665.35
  Q 772.98 665.54 772.18 664.67
  Q 771.85 664.32 772.00 663.85
  Q 772.27 663.00 771.73 661.75
  Q 820.99 578.11 811.19 481.00
  C 810.42 473.30 809.39 468.22 815.60 464.07
  C 822.06 459.76 831.13 461.78 834.65 468.96
  Q 836.09 471.88 836.48 475.32
  Q 840.87 514.38 836.68 551.95
  Q 829.94 612.29 800.02 667.52
  Q 797.91 671.43 796.94 672.74
  Z"
/>
<path fill="#006c62" d="
  M 422.43 466.86
  Q 441.41 480.77 464.18 489.19
  Q 469.10 492.16 474.44 495.61
  Q 505.93 515.94 528.20 545.50
  L 514.64 559.41
  A 0.62 0.62 0.0 0 1 513.76 559.41
  Q 488.76 533.45 455.25 515.91
  Q 442.27 509.11 429.27 502.03
  C 417.69 495.72 405.69 488.19 395.51 479.29
  Q 396.39 477.57 395.14 475.88
  Q 394.66 475.22 395.48 475.25
  L 397.08 475.31
  Q 397.58 475.33 398.03 475.14
  L 403.17 472.99
  A 0.86 0.85 70.4 0 1 404.32 473.54
  Q 404.85 475.36 406.98 474.61
  Q 408.52 474.06 410.21 473.52
  Q 410.69 473.36 410.72 472.86
  Q 410.75 472.40 410.61 471.96
  Q 410.46 471.48 410.94 471.33
  Q 413.42 470.52 415.73 470.23
  Q 417.98 469.95 422.43 466.86
  Z"
/>
<path fill="#006c62" d="
  M 667.69 521.75
  Q 671.61 528.41 671.58 537.00
  C 671.52 550.84 667.98 561.23 661.56 573.53
  C 654.77 586.52 643.95 598.15 632.91 607.41
  Q 627.24 612.17 608.55 626.09
  Q 607.25 625.81 605.67 625.94
  Q 604.19 626.06 602.84 625.83
  C 600.72 625.47 597.89 625.46 595.91 626.49
  Q 595.08 626.92 594.20 626.88
  Q 593.25 626.84 594.00 626.25
  C 596.18 624.52 598.35 622.91 600.51 620.97
  Q 608.57 613.69 616.24 606.73
  C 631.78 592.62 645.33 575.47 654.64 556.50
  Q 656.13 553.48 657.14 550.45
  Q 659.51 543.37 661.69 536.50
  Q 662.85 532.84 663.58 528.77
  Q 664.07 526.03 664.93 523.18
  Q 665.25 522.12 665.37 523.22
  Q 665.38 523.35 665.55 523.41
  Q 665.82 523.51 665.98 523.27
  Q 666.47 522.53 666.37 521.75
  Q 666.26 520.92 666.90 521.46
  Q 667.36 521.84 667.69 521.75
  Z"
/>
<path fill="#262056" d="
  M 419.38 626.14
  Q 407.80 617.01 397.58 608.45
  Q 382.50 595.81 372.32 580.43
  Q 363.78 567.53 360.18 551.84
  Q 362.95 551.53 365.26 550.86
  Q 366.60 550.47 370.61 551.45
  A 1.19 1.17 32.8 0 0 371.62 551.24
  Q 372.03 550.93 372.59 550.82
  Q 373.14 550.71 373.36 551.22
  C 384.58 577.41 404.22 599.46 426.02 617.40
  Q 429.35 620.15 432.42 622.77
  C 435.01 624.98 438.00 626.72 440.54 628.97
  Q 441.37 629.70 440.28 629.54
  C 438.37 629.26 436.73 628.17 434.70 627.85
  Q 426.81 626.60 419.38 626.14
  Z"
/>
<path fill="#262056" d="
  M 314.83 624.96
  Q 332.03 640.27 344.08 648.17
  Q 362.45 660.20 379.79 670.10
  C 400.77 682.09 421.90 693.58 442.43 707.59
  Q 449.10 712.13 456.57 717.99
  C 466.75 725.97 475.54 735.72 482.44 746.49
  Q 486.80 753.31 489.62 760.53
  Q 492.76 768.57 494.71 777.53
  A 1.86 1.85 -2.3 0 0 496.26 778.96
  L 504.90 780.19
  L 502.34 798.76
  L 500.92 800.12
  A 2.46 2.25 -10.5 0 0 500.52 800.65
  L 499.89 801.79
  Q 499.46 802.56 498.82 801.96
  Q 497.12 800.36 495.20 799.68
  Q 494.78 799.53 494.50 799.19
  L 493.57 798.08
  Q 493.23 797.67 492.69 797.64
  L 491.59 797.59
  A 0.81 0.80 -2.1 0 1 490.82 796.88
  Q 490.61 794.91 489.51 793.34
  A 1.33 1.31 -63.0 0 1 489.27 792.58
  L 489.27 792.11
  Q 489.27 791.72 488.92 791.56
  C 487.82 791.03 486.48 790.18 486.06 788.98
  Q 485.81 788.27 485.13 787.92
  Q 484.82 787.77 484.68 787.46
  Q 484.51 787.09 484.21 787.32
  Q 483.82 787.61 483.40 787.37
  L 481.40 786.21
  Q 481.02 785.99 480.59 786.10
  Q 479.61 786.36 478.87 785.53
  A 1.53 1.51 -12.8 0 0 478.13 785.07
  Q 475.33 784.25 472.63 785.03
  Q 472.18 785.16 471.73 785.05
  Q 469.59 784.51 467.90 785.73
  Q 467.39 786.10 467.01 785.59
  Q 466.53 784.96 465.92 785.44
  Q 465.54 785.74 465.08 785.60
  Q 462.46 784.79 460.18 785.45
  Q 457.45 786.25 454.87 785.52
  Q 454.53 785.42 454.18 785.51
  Q 452.41 785.97 450.33 785.66
  Q 447.25 785.21 444.20 785.29
  Q 442.09 785.34 439.85 785.71
  Q 437.62 786.07 435.56 785.93
  A 3.30 3.29 88.5 0 1 432.52 783.04
  Q 432.15 780.04 432.09 776.92
  Q 432.03 773.82 431.24 770.64
  Q 429.54 763.80 426.55 756.91
  Q 417.75 736.60 401.50 720.99
  Q 391.57 711.45 382.65 703.21
  C 370.89 692.35 359.98 681.61 348.38 669.85
  C 342.14 663.54 335.85 656.79 330.41 649.69
  Q 321.94 638.63 314.38 628.57
  Q 314.07 628.16 314.19 627.67
  L 314.83 624.96
  Z"
/>
<path fill="#006c62" d="
  M 714.98 626.00
  L 714.89 627.70
  Q 714.87 628.20 714.57 628.59
  C 711.64 632.52 708.77 637.26 706.29 640.66
  Q 692.16 660.02 675.22 677.10
  Q 658.81 693.23 641.75 708.75
  C 634.08 715.72 626.10 724.04 620.47 730.49
  Q 608.98 743.68 602.22 759.67
  C 599.61 765.85 597.75 772.62 597.49 779.05
  Q 597.23 785.59 597.74 793.97
  A 1.11 1.10 -88.1 0 1 596.51 795.13
  Q 595.14 794.97 593.92 795.18
  C 585.36 796.65 576.56 798.42 568.01 799.46
  Q 558.84 800.56 549.73 801.73
  Q 546.49 802.14 543.15 802.10
  Q 539.48 802.05 536.35 802.41
  Q 536.01 802.45 535.72 802.64
  Q 535.30 802.92 534.52 802.88
  Q 529.77 802.68 529.15 807.44
  L 527.40 796.73
  L 528.12 796.58
  Q 528.55 796.50 528.92 796.74
  Q 529.44 797.07 529.97 796.67
  Q 530.36 796.37 530.46 795.90
  C 530.64 795.04 531.07 794.49 531.20 793.66
  Q 533.90 776.38 540.66 760.24
  C 551.88 733.54 574.66 714.53 598.73 699.16
  C 606.72 694.06 614.97 689.22 623.17 684.80
  Q 643.62 673.79 662.34 662.63
  Q 681.24 651.35 700.08 637.82
  Q 704.06 634.95 714.98 626.00
  Z"
/>
<path fill="#262056" d="
  M 771.73 661.75
  Q 772.27 663.00 772.00 663.85
  Q 771.85 664.32 772.18 664.67
  Q 772.98 665.54 774.23 665.35
  Q 774.87 665.25 774.89 665.90
  Q 774.90 666.03 774.97 666.15
  Q 775.20 666.55 775.58 666.75
  Q 776.77 667.35 777.47 668.33
  Q 777.74 668.70 778.12 668.95
  L 780.41 670.38
  A 1.59 1.58 -22.0 0 0 780.86 670.57
  Q 782.06 670.83 782.71 671.83
  Q 782.94 672.18 783.36 672.21
  Q 785.63 672.39 786.86 674.01
  Q 787.22 674.48 787.77 674.27
  Q 788.64 673.93 789.24 673.29
  A 0.37 0.36 76.1 0 1 789.85 673.66
  Q 789.63 674.30 789.64 675.05
  A 0.22 0.21 -4.6 0 0 789.89 675.26
  Q 790.07 675.24 790.08 675.05
  Q 790.08 674.69 790.26 675.00
  Q 790.35 675.15 790.50 675.19
  A 0.31 0.30 26.0 0 0 790.86 675.07
  Q 791.75 673.75 792.81 672.39
  Q 793.08 672.06 793.50 672.07
  Q 793.96 672.08 794.23 671.70
  L 796.72 668.27
  Q 797.08 667.78 796.98 668.38
  Q 796.61 670.62 796.94 672.74
  Q 778.12 705.93 751.36 733.11
  Q 730.51 754.29 705.89 771.77
  C 701.10 775.17 696.11 779.37 690.03 779.53
  C 682.82 779.73 677.11 774.41 676.69 767.18
  Q 676.18 758.44 684.44 752.45
  Q 696.17 743.94 709.11 733.38
  Q 746.47 702.91 771.73 661.75
  Z"
/>
<path fill="#089271" d="
  M 264.04 670.95
  Q 267.49 675.81 270.92 680.60
  Q 293.42 712.02 323.91 736.10
  Q 334.87 744.76 346.62 753.36
  Q 350.52 756.23 352.28 760.22
  C 354.87 766.11 353.11 773.38 347.74 776.87
  Q 341.11 781.17 334.84 778.84
  Q 332.36 777.91 324.26 771.93
  Q 311.46 762.49 301.79 754.44
  Q 255.61 716.03 227.44 663.00
  Q 228.16 662.79 229.28 663.30
  Q 229.65 663.47 230.01 663.26
  Q 230.24 663.12 230.13 662.95
  Q 229.80 662.45 230.36 662.65
  Q 234.67 664.16 239.63 666.59
  Q 242.23 667.86 245.81 668.67
  Q 246.46 668.81 246.45 668.15
  Q 246.44 667.07 245.63 666.45
  Q 245.39 666.27 245.45 665.98
  Q 245.63 665.01 246.54 665.33
  Q 248.72 666.08 251.13 666.58
  Q 253.02 666.97 254.37 668.06
  Q 256.08 669.44 258.15 670.46
  Q 258.51 670.63 258.83 670.42
  Q 260.45 669.36 262.57 670.26
  Q 263.14 670.50 262.66 670.91
  Q 262.55 671.00 262.40 671.02
  A 0.11 0.10 -30.5 0 0 262.35 671.21
  Q 262.92 671.62 264.04 670.95
  Z"
/>
<path fill="#034250" d="
  M 722.81 673.80
  C 707.95 690.38 690.93 704.92 674.19 719.68
  Q 668.12 725.04 660.65 733.76
  C 647.07 749.60 637.16 769.48 637.75 790.11
  Q 637.92 795.78 638.50 801.26
  C 639.76 812.97 631.25 816.21 622.23 819.18
  Q 584.39 831.63 546.19 834.62
  C 538.56 835.22 535.00 831.14 532.78 824.76
  Q 530.94 819.44 529.15 807.44
  Q 529.77 802.68 534.52 802.88
  Q 535.30 802.92 535.72 802.64
  Q 536.01 802.45 536.35 802.41
  Q 539.48 802.05 543.15 802.10
  Q 546.49 802.14 549.73 801.73
  Q 558.84 800.56 568.01 799.46
  C 576.56 798.42 585.36 796.65 593.92 795.18
  Q 595.14 794.97 596.51 795.13
  A 1.11 1.10 -88.1 0 0 597.74 793.97
  Q 597.23 785.59 597.49 779.05
  C 597.75 772.62 599.61 765.85 602.22 759.67
  Q 608.98 743.68 620.47 730.49
  C 626.10 724.04 634.08 715.72 641.75 708.75
  Q 658.81 693.23 675.22 677.10
  Q 677.92 676.03 679.27 673.46
  Q 679.51 673.00 680.01 673.15
  Q 680.40 673.26 680.64 673.71
  Q 680.69 673.81 680.60 673.88
  Q 680.48 673.96 680.43 674.08
  Q 680.38 674.18 680.45 674.26
  Q 682.09 676.14 683.99 675.34
  Q 688.67 673.37 696.25 673.23
  Q 696.34 673.23 696.32 673.32
  Q 696.29 673.48 696.39 673.56
  Q 696.49 673.65 696.59 673.55
  Q 697.17 673.00 697.99 672.99
  Q 702.54 672.94 707.33 673.75
  Q 707.75 673.82 708.14 673.67
  Q 708.56 673.51 708.88 673.84
  A 0.74 0.73 -38.6 0 0 709.81 673.94
  Q 710.25 673.65 710.75 673.75
  Q 712.55 674.13 715.52 675.15
  Q 715.96 675.30 716.15 675.73
  Q 716.59 676.71 717.73 676.63
  Q 717.97 676.62 717.87 676.41
  Q 717.80 676.26 717.71 676.17
  Q 717.63 676.10 717.52 676.10
  Q 717.37 676.10 717.27 676.22
  Q 717.04 676.51 716.77 676.25
  Q 716.62 676.12 716.61 675.96
  Q 716.57 675.59 716.93 675.47
  Q 718.01 675.10 719.02 674.53
  Q 719.66 674.17 720.06 674.73
  Q 720.27 675.02 720.44 674.70
  Q 720.85 673.88 721.76 674.10
  Q 721.94 674.14 721.92 673.96
  Q 721.87 673.57 722.27 673.45
  Q 722.82 673.29 722.81 673.80
  Z"
/>
<path fill="#089271" d="
  M 540.66 760.24
  Q 533.90 776.38 531.20 793.66
  C 531.07 794.49 530.64 795.04 530.46 795.90
  Q 530.36 796.37 529.97 796.67
  Q 529.44 797.07 528.92 796.74
  Q 528.55 796.50 528.12 796.58
  L 527.40 796.73
  Q 523.72 772.69 523.51 748.48
  Q 523.96 747.93 524.25 747.81
  Q 524.57 747.68 524.64 748.03
  Q 524.87 749.23 525.92 749.20
  Q 526.25 749.19 526.54 749.36
  L 534.32 754.13
  A 1.44 1.39 -88.9 0 1 534.82 754.67
  Q 535.25 755.48 536.05 755.90
  Q 536.50 756.13 536.77 756.54
  Q 538.26 758.78 540.66 760.24
  Z"
/>
</svg>
