<svg id="visual" viewBox="0 0 900 600" width="900" height="600" xmlns="http://www.w3.org/2000/svg" xmlns:xlink="http://www.w3.org/1999/xlink" version="1.1"><rect x="0" y="0" width="900" height="600" fill="#001220"></rect><path d="M0 362L21.5 364.2C43 366.3 86 370.7 128.8 381.7C171.7 392.7 214.3 410.3 257.2 418.2C300 426 343 424 385.8 410.8C428.7 397.7 471.3 373.3 514.2 375.8C557 378.3 600 407.7 642.8 420.8C685.7 434 728.3 431 771.2 422.3C814 413.7 857 399.3 878.5 392.2L900 385L900 601L878.5 601C857 601 814 601 771.2 601C728.3 601 685.7 601 642.8 601C600 601 557 601 514.2 601C471.3 601 428.7 601 385.8 601C343 601 300 601 257.2 601C214.3 601 171.7 601 128.8 601C86 601 43 601 21.5 601L0 601Z" fill="#fa7268"></path><path d="M0 446L21.5 439.5C43 433 86 420 128.8 419.8C171.7 419.7 214.3 432.3 257.2 439.2C300 446 343 447 385.8 446.7C428.7 446.3 471.3 444.7 514.2 446.2C557 447.7 600 452.3 642.8 457.5C685.7 462.7 728.3 468.3 771.2 467.3C814 466.3 857 458.7 878.5 454.8L900 451L900 601L878.5 601C857 601 814 601 771.2 601C728.3 601 685.7 601 642.8 601C600 601 557 601 514.2 601C471.3 601 428.7 601 385.8 601C343 601 300 601 257.2 601C214.3 601 171.7 601 128.8 601C86 601 43 601 21.5 601L0 601Z" fill="#ef5f67"></path><path d="M0 438L21.5 438.2C43 438.3 86 438.7 128.8 446.3C171.7 454 214.3 469 257.2 476.2C300 483.3 343 482.7 385.8 484.8C428.7 487 471.3 492 514.2 496.7C557 501.3 600 505.7 642.8 505C685.7 504.3 728.3 498.7 771.2 490C814 481.3 857 469.7 878.5 463.8L900 458L900 601L878.5 601C857 601 814 601 771.2 601C728.3 601 685.7 601 642.8 601C600 601 557 601 514.2 601C471.3 601 428.7 601 385.8 601C343 601 300 601 257.2 601C214.3 601 171.7 601 128.8 601C86 601 43 601 21.5 601L0 601Z" fill="#e34c67"></path><path d="M0 507L21.5 510.8C43 514.7 86 522.3 128.8 527.3C171.7 532.3 214.3 534.7 257.2 533.8C300 533 343 529 385.8 529.7C428.7 530.3 471.3 535.7 514.2 538.7C557 541.7 600 542.3 642.8 537.2C685.7 532 728.3 521 771.2 517.7C814 514.3 857 518.7 878.5 520.8L900 523L900 601L878.5 601C857 601 814 601 771.2 601C728.3 601 685.7 601 642.8 601C600 601 557 601 514.2 601C471.3 601 428.7 601 385.8 601C343 601 300 601 257.2 601C214.3 601 171.7 601 128.8 601C86 601 43 601 21.5 601L0 601Z" fill="#d53867"></path><path d="M0 561L21.5 558.5C43 556 86 551 128.8 546.3C171.7 541.7 214.3 537.3 257.2 535.2C300 533 343 533 385.8 534.3C428.7 535.7 471.3 538.3 514.2 543.8C557 549.3 600 557.7 642.8 557.3C685.7 557 728.3 548 771.2 543.8C814 539.7 857 540.3 878.5 540.7L900 541L900 601L878.5 601C857 601 814 601 771.2 601C728.3 601 685.7 601 642.8 601C600 601 557 601 514.2 601C471.3 601 428.7 601 385.8 601C343 601 300 601 257.2 601C214.3 601 171.7 601 128.8 601C86 601 43 601 21.5 601L0 601Z" fill="#c62368"></path></svg>