<svg id="visual" viewBox="0 0 900 600" width="900" height="600" xmlns="http://www.w3.org/2000/svg" xmlns:xlink="http://www.w3.org/1999/xlink" version="1.1"><path d="M0 91L82 91L82 73L164 73L164 97L245 97L245 49L327 49L327 55L409 55L409 73L491 73L491 79L573 79L573 43L655 43L655 43L736 43L736 79L818 79L818 79L900 79L900 37L900 0L900 0L818 0L818 0L736 0L736 0L655 0L655 0L573 0L573 0L491 0L491 0L409 0L409 0L327 0L327 0L245 0L245 0L164 0L164 0L82 0L82 0L0 0Z" fill="#6a8f9a"></path><path d="M0 175L82 175L82 205L164 205L164 205L245 205L245 205L327 205L327 199L409 199L409 169L491 169L491 217L573 217L573 145L655 145L655 103L736 103L736 217L818 217L818 205L900 205L900 145L900 35L900 77L818 77L818 77L736 77L736 41L655 41L655 41L573 41L573 77L491 77L491 71L409 71L409 53L327 53L327 47L245 47L245 95L164 95L164 71L82 71L82 89L0 89Z" fill="#5e8490"></path><path d="M0 379L82 379L82 343L164 343L164 457L245 457L245 367L327 367L327 331L409 331L409 295L491 295L491 409L573 409L573 379L655 379L655 409L736 409L736 355L818 355L818 331L900 331L900 259L900 143L900 203L818 203L818 215L736 215L736 101L655 101L655 143L573 143L573 215L491 215L491 167L409 167L409 197L327 197L327 203L245 203L245 203L164 203L164 203L82 203L82 173L0 173Z" fill="#527a86"></path><path d="M0 421L82 421L82 415L164 415L164 523L245 523L245 469L327 469L327 415L409 415L409 373L491 373L491 451L573 451L573 439L655 439L655 457L736 457L736 439L818 439L818 373L900 373L900 343L900 257L900 329L818 329L818 353L736 353L736 407L655 407L655 377L573 377L573 407L491 407L491 293L409 293L409 329L327 329L327 365L245 365L245 455L164 455L164 341L82 341L82 377L0 377Z" fill="#476f7c"></path><path d="M0 601L82 601L82 601L164 601L164 601L245 601L245 601L327 601L327 601L409 601L409 601L491 601L491 601L573 601L573 601L655 601L655 601L736 601L736 601L818 601L818 601L900 601L900 601L900 341L900 371L818 371L818 437L736 437L736 455L655 455L655 437L573 437L573 449L491 449L491 371L409 371L409 413L327 413L327 467L245 467L245 521L164 521L164 413L82 413L82 419L0 419Z" fill="#3b6572"></path></svg>