<svg id="visual" viewBox="0 0 675 900" width="675" height="900" xmlns="http://www.w3.org/2000/svg" xmlns:xlink="http://www.w3.org/1999/xlink" version="1.1"><rect x="0" y="0" width="675" height="900" fill="#122838"></rect><defs><linearGradient id="grad1_0" x1="0%" y1="0%" x2="100%" y2="100%"><stop offset="30%" stop-color="#fbae3c" stop-opacity="1"></stop><stop offset="70%" stop-color="#fbae3c" stop-opacity="1"></stop></linearGradient></defs><defs><linearGradient id="grad1_1" x1="0%" y1="0%" x2="100%" y2="100%"><stop offset="30%" stop-color="#fbae3c" stop-opacity="1"></stop><stop offset="70%" stop-color="#d76072" stop-opacity="1"></stop></linearGradient></defs><defs><linearGradient id="grad1_2" x1="0%" y1="0%" x2="100%" y2="100%"><stop offset="30%" stop-color="#684877" stop-opacity="1"></stop><stop offset="70%" stop-color="#d76072" stop-opacity="1"></stop></linearGradient></defs><defs><linearGradient id="grad1_3" x1="0%" y1="0%" x2="100%" y2="100%"><stop offset="30%" stop-color="#684877" stop-opacity="1"></stop><stop offset="70%" stop-color="#122838" stop-opacity="1"></stop></linearGradient></defs><defs><linearGradient id="grad2_0" x1="0%" y1="0%" x2="100%" y2="100%"><stop offset="30%" stop-color="#fbae3c" stop-opacity="1"></stop><stop offset="70%" stop-color="#fbae3c" stop-opacity="1"></stop></linearGradient></defs><defs><linearGradient id="grad2_1" x1="0%" y1="0%" x2="100%" y2="100%"><stop offset="30%" stop-color="#d76072" stop-opacity="1"></stop><stop offset="70%" stop-color="#fbae3c" stop-opacity="1"></stop></linearGradient></defs><defs><linearGradient id="grad2_2" x1="0%" y1="0%" x2="100%" y2="100%"><stop offset="30%" stop-color="#d76072" stop-opacity="1"></stop><stop offset="70%" stop-color="#684877" stop-opacity="1"></stop></linearGradient></defs><defs><linearGradient id="grad2_3" x1="0%" y1="0%" x2="100%" y2="100%"><stop offset="30%" stop-color="#122838" stop-opacity="1"></stop><stop offset="70%" stop-color="#684877" stop-opacity="1"></stop></linearGradient></defs><g transform="translate(675, 0)"><path d="M0 450C-33.4 445.8 -66.9 441.5 -99.2 434.8C-131.6 428.1 -162.9 418.9 -195.2 405.4C-227.6 392 -261.1 374.3 -273.1 342.4C-285 310.6 -275.4 264.5 -302.6 241.3C-329.7 218.1 -393.7 217.9 -400 192.6C-406.4 167.4 -355.2 117.1 -353.9 80.8C-352.6 44.5 -401.3 22.2 -450 0L0 0Z" fill="#323b5d"></path><path d="M0 337.5C-25.1 334.3 -50.2 331.2 -74.4 326.1C-98.7 321.1 -122.1 314.2 -146.4 304.1C-170.7 294 -195.9 280.7 -204.8 256.8C-213.8 232.9 -206.6 198.3 -226.9 181C-247.3 163.6 -295.3 163.4 -300 144.5C-304.8 125.5 -266.4 87.8 -265.4 60.6C-264.5 33.4 -301 16.7 -337.5 0L0 0Z" fill="#a4517e"></path><path d="M0 225C-16.7 222.9 -33.4 220.8 -49.6 217.4C-65.8 214 -81.4 209.4 -97.6 202.7C-113.8 196 -130.6 187.2 -136.5 171.2C-142.5 155.3 -137.7 132.2 -151.3 120.6C-164.9 109.1 -196.8 109 -200 96.3C-203.2 83.7 -177.6 58.5 -176.9 40.4C-176.3 22.2 -200.7 11.1 -225 0L0 0Z" fill="#f78058"></path><path d="M0 112.5C-8.4 111.4 -16.7 110.4 -24.8 108.7C-32.9 107 -40.7 104.7 -48.8 101.4C-56.9 98 -65.3 93.6 -68.3 85.6C-71.3 77.6 -68.9 66.1 -75.6 60.3C-82.4 54.5 -98.4 54.5 -100 48.2C-101.6 41.8 -88.8 29.3 -88.5 20.2C-88.2 11.1 -100.3 5.6 -112.5 0L0 0Z" fill="#fbae3c"></path></g><g transform="translate(0, 900)"><path d="M0 -450C27.5 -424.5 55 -399 90.6 -396.8C126.2 -394.5 169.9 -415.5 190.5 -395.5C211 -375.5 208.3 -314.5 229.4 -287.7C250.6 -260.9 295.5 -268.3 317.4 -253.1C339.4 -238 338.4 -200.4 358.6 -172.7C378.7 -145 420 -127.3 438.7 -100.1C457.5 -73 453.7 -36.5 450 0L0 0Z" fill="#323b5d"></path><path d="M0 -337.5C20.6 -318.4 41.2 -299.3 67.9 -297.6C94.6 -295.9 127.5 -311.6 142.9 -296.6C158.3 -281.6 156.3 -235.9 172.1 -215.8C187.9 -195.7 221.6 -201.2 238.1 -189.9C254.5 -178.5 253.8 -150.3 268.9 -129.5C284 -108.7 315 -95.4 329 -75.1C343.1 -54.8 340.3 -27.4 337.5 0L0 0Z" fill="#a4517e"></path><path d="M0 -225C13.7 -212.3 27.5 -199.5 45.3 -198.4C63.1 -197.3 85 -207.8 95.2 -197.8C105.5 -187.8 104.2 -157.3 114.7 -143.9C125.3 -130.5 147.7 -134.1 158.7 -126.6C169.7 -119 169.2 -100.2 179.3 -86.3C189.4 -72.5 210 -63.6 219.4 -50.1C228.7 -36.5 226.9 -18.3 225 0L0 0Z" fill="#f78058"></path><path d="M0 -112.5C6.9 -106.1 13.7 -99.8 22.6 -99.2C31.5 -98.6 42.5 -103.9 47.6 -98.9C52.8 -93.9 52.1 -78.6 57.4 -71.9C62.6 -65.2 73.9 -67.1 79.4 -63.3C84.8 -59.5 84.6 -50.1 89.6 -43.2C94.7 -36.2 105 -31.8 109.7 -25C114.4 -18.3 113.4 -9.1 112.5 0L0 0Z" fill="#fbae3c"></path></g></svg>